<svg id="Layer_1" data-name="Layer 1" xmlns="http://www.w3.org/2000/svg" viewBox="0 0 705.93 166.05">
                <defs>
                  <style>
                    .cls-1,
                    .cls-4 {
                      fill: #808285;
                    }
                    .cls-2,
                    .cls-5 {
                      fill: #231f20;
                    }
                    .cls-3 {
                      fill: #ed1c24;
                    }
                    .cls-3,
                    .cls-4,
                    .cls-5 {
                      fill-rule: evenodd;
                    }
                  </style>
                </defs>
                <title>Logo_homa_h</title>
                <path class="cls-1" d="M324.81,219.68c7.29,0,12.91,4,13.63,11h-5.62c-.95-3.73-3.33-6.39-8-6.39-6.89,0-9.77,6.08-9.77,12.24s2.88,12.24,9.77,12.24c5,0,7.69-3.73,8.19-8.41h5.49c-.5,7.69-5.9,13-13.68,13-9.59,0-15.39-7.6-15.39-16.83S315.22,219.68,324.81,219.68Z" transform="translate(-72.65 -219.68)"></path>
                <path class="cls-1" d="M343.45,220.45h5.13v11.92h.09a8.16,8.16,0,0,1,7-3.69c5.08,0,8.23,2.66,8.23,7.92v16h-5.13V238c-.13-3.64-1.48-5.22-4.54-5.22-3.42,0-5.63,2.7-5.63,6.12v13.73h-5.13Z" transform="translate(-72.65 -219.68)"></path>
                <path class="cls-1" d="M373.74,242.27c0,3.65,2,6.89,6.25,6.89,3,0,4.77-1.31,5.67-3.87h4.86c-1.08,5.08-5.49,7.92-10.53,7.92-7.33,0-11.38-5-11.38-12.24,0-6.62,4.32-12.29,11.25-12.29,7.33,0,11.83,6.62,11,13.59Zm12-3.37c-.23-3.24-2.34-6.17-5.85-6.17a6.08,6.08,0,0,0-6.12,6.17Z" transform="translate(-72.65 -219.68)"></path>
                <path class="cls-1" d="M395.39,229.31h4.85v3.24h.14a7.78,7.78,0,0,1,7.15-3.87c2.84,0,5.49,1.22,6.53,3.87a8.4,8.4,0,0,1,7.29-3.87c4.9,0,7.78,2.21,7.78,7.83v16.07H424V239c0-3.74-.22-6.26-4.23-6.26-3.46,0-4.95,2.25-4.95,6.21v13.64h-5.13V237.64c0-3.24-1-4.91-4.09-4.91-2.66,0-5.08,2.21-5.08,6v13.82h-5.13Z" transform="translate(-72.65 -219.68)"></path>
                <path class="cls-1" d="M435.16,220.45h5.13v4.86h-5.13Zm0,8.86h5.13v23.27h-5.13Z" transform="translate(-72.65 -219.68)"></path>
                <path class="cls-1" d="M462,237.1c-.41-2.88-2.43-4.37-5.31-4.37-2.66,0-6.39,1.44-6.39,8.46,0,3.87,1.71,8,6.16,8,3,0,5-1.94,5.54-5.31h5.13c-.95,6.07-4.68,9.36-10.67,9.36-7.28,0-11.29-5.18-11.29-12,0-7,3.82-12.51,11.48-12.51,5.39,0,10,2.7,10.48,8.42Z" transform="translate(-72.65 -219.68)"></path>
                <path class="cls-1" d="M491.45,247.4c0,1.26.27,1.76,1.21,1.76a6.13,6.13,0,0,0,1.26-.09v3.55a12.8,12.8,0,0,1-3.24.59c-2.11,0-3.55-.72-4-2.84-2,2-5.31,2.84-8.05,2.84-4.28,0-8-2.25-8-6.8,0-5.71,4.46-6.7,8.73-7.24l2.84-.36c3.15-.41,4.36-.9,4.36-2.93,0-2.7-2.79-3.15-4.81-3.15-2.88,0-4.91,1.17-5.13,3.69h-5.13c.36-6,5.4-7.74,10.57-7.74,4.55,0,9.32,1.85,9.32,6.75Zm-5.13-6.48a8.59,8.59,0,0,1-4,1.08l-2.07.27c-2.34.32-4.46,1.22-4.46,3.69s2.21,3.2,4.41,3.2c2.7,0,6.08-1.17,6.08-4.41Z" transform="translate(-72.65 -219.68)"></path>
                <path class="cls-1" d="M498,220.45h5.13v32.13H498Z" transform="translate(-72.65 -219.68)"></path>
                <path class="cls-1" d="M523.87,220.45H547v4.86H529.49v8.41h16.2v4.59h-16.2v9.41h17.82v4.86H523.87Z" transform="translate(-72.65 -219.68)"></path>
                <path class="cls-1" d="M552.08,229.31h4.86v3.42l.09.09a8.41,8.41,0,0,1,7.25-4.14c5.08,0,8.23,2.66,8.23,7.92v16h-5.13V238c-.13-3.64-1.48-5.22-4.55-5.22-3.41,0-5.62,2.7-5.62,6.12v13.73h-5.13Z" transform="translate(-72.65 -219.68)"></path>
                <path class="cls-1" d="M599.87,251.36c0,7-4,10.44-11.43,10.44-4.68,0-9.9-1.8-10.39-7.24h5.13c.63,2.92,3,3.42,5.58,3.42,4.14,0,6-2.12,6-5.94v-3.56h-.09a8,8,0,0,1-7,4.1c-7.38,0-10.44-5.58-10.44-12.24,0-6.26,3.92-11.66,10.53-11.66,2.92,0,5.58,1.17,6.88,3.83h.09v-3.2h5.13Zm-5.13-10.93c0-4-1.8-7.7-6.25-7.7s-6.12,4.23-6.12,8.1,1.84,7.7,6.12,7.7C593,248.53,594.74,244.43,594.74,240.43Z" transform="translate(-72.65 -219.68)"></path>
                <path class="cls-1" d="M605.76,220.45h5.13v4.86h-5.13Zm0,8.86h5.13v23.27h-5.13Z" transform="translate(-72.65 -219.68)"></path>
                <path class="cls-1" d="M616.86,229.31h4.86v3.42l.09.09a8.38,8.38,0,0,1,7.24-4.14c5.09,0,8.24,2.66,8.24,7.92v16h-5.13V238c-.14-3.64-1.49-5.22-4.55-5.22-3.42,0-5.62,2.7-5.62,6.12v13.73h-5.13Z" transform="translate(-72.65 -219.68)"></path>
                <path class="cls-1" d="M647.15,242.27c0,3.65,2,6.89,6.25,6.89,3,0,4.77-1.31,5.67-3.87h4.86c-1.08,5.08-5.49,7.92-10.53,7.92-7.33,0-11.38-5-11.38-12.24,0-6.62,4.31-12.29,11.24-12.29,7.34,0,11.84,6.62,11,13.59Zm12-3.37c-.22-3.24-2.34-6.17-5.85-6.17a6.07,6.07,0,0,0-6.11,6.17Z" transform="translate(-72.65 -219.68)"></path>
                <path class="cls-1" d="M673,242.27c0,3.65,2,6.89,6.26,6.89,3,0,4.77-1.31,5.67-3.87h4.86c-1.08,5.08-5.49,7.92-10.53,7.92-7.34,0-11.39-5-11.39-12.24,0-6.62,4.32-12.29,11.25-12.29,7.34,0,11.84,6.62,11,13.59Zm12-3.37c-.22-3.24-2.34-6.17-5.85-6.17A6.09,6.09,0,0,0,673,238.9Z" transform="translate(-72.65 -219.68)"></path>
                <path class="cls-1" d="M694.66,229.31h4.81v4.5h.09a7.57,7.57,0,0,1,6.8-5.13,11.33,11.33,0,0,1,1.93.14v5a11.74,11.74,0,0,0-2.2-.23c-3.47,0-6.3,2.79-6.3,8v11.07h-5.13Z" transform="translate(-72.65 -219.68)"></path>
                <path class="cls-1" d="M711.62,220.45h5.13v4.86h-5.13Zm0,8.86h5.13v23.27h-5.13Z" transform="translate(-72.65 -219.68)"></path>
                <path class="cls-1" d="M722.72,229.31h4.86v3.42l.09.09a8.38,8.38,0,0,1,7.24-4.14c5.09,0,8.24,2.66,8.24,7.92v16H738V238c-.14-3.64-1.49-5.22-4.55-5.22-3.42,0-5.62,2.7-5.62,6.12v13.73h-5.13Z" transform="translate(-72.65 -219.68)"></path>
                <path class="cls-1" d="M770.51,251.36c0,7-4,10.44-11.43,10.44-4.68,0-9.9-1.8-10.39-7.24h5.13c.63,2.92,3,3.42,5.58,3.42,4.14,0,6-2.12,6-5.94v-3.56h-.09a8,8,0,0,1-7,4.1c-7.38,0-10.44-5.58-10.44-12.24,0-6.26,3.91-11.66,10.53-11.66,2.92,0,5.58,1.17,6.88,3.83h.09v-3.2h5.13Zm-5.13-10.93c0-4-1.8-7.7-6.26-7.7S753,237,753,240.83s1.84,7.7,6.11,7.7C763.67,248.53,765.38,244.43,765.38,240.43Z" transform="translate(-72.65 -219.68)"></path>
                <path class="cls-2" d="M332.5,271.61c-11.25,0-23.71,3.12-32.44,15V220.47H270.11V382h29.95V321.47c0-7.45.61-12.43,3.11-16.16,3.12-4.36,8.12-9.37,16.86-9.37,6.23,0,11.21,2.49,14.33,8.72,1.88,3.12,1.88,8.11,1.88,15V382h29.33V314.65c0-15.59-3.12-22.45-5-27.44C358.09,281.6,351.2,271.61,332.5,271.61Z" transform="translate(-72.65 -219.68)"></path>
                <path class="cls-2" d="M625.1,271c-12.47,0-23.71,6.25-33.06,21.23C588.3,281.6,578.94,271,562.73,271c-10,.64-21.23,5-30.59,19.35V274.13H504.69V382H534V320.22c0-16.81,9.38-24.28,18.11-24.9,11.22,0,14.37,9.34,14.37,23.68v63h29.93V320.87c0-21.17,11.22-25.55,18.08-25.55,13.73.62,15.59,15,15.59,23.68v63h29.35V316.51c0-15.56-3.14-24.31-6.26-29.91C647,276,636.94,271.61,625.1,271Z" transform="translate(-72.65 -219.68)"></path>
                <path class="cls-2" d="M773.58,374.53c-.62-1.89-1.24-5.61-1.24-14.35l.62-49.89c0-8.11-.62-17.45-7.49-25.58-8.74-10-21.83-13.1-36.79-13.1h-3.14c-16.21.65-24.95,3.75-31.8,10-9.36,7.48-11.86,19.35-12.5,27.44h28.09c0-3.73,1.86-15.62,16.21-16.84h2.52c3.1,0,9.32.64,11.84,4.37,3.13,2.49,3.74,6.84,3.74,10,0,3.75,0,6.23-1.26,8.11-2.48,3.08-8.1,3.71-16.84,5-1.86.58-3.74.58-6.22,1.23-9.37,1.22-21.23,2.5-30,8.11-9.34,6.85-12.46,18.09-12.46,26.19,0,7.51,1.86,16.21,8.74,22.45,3.72,3.75,10.61,7.52,25,7.52,6.23,0,11.2-.64,14.94-1.89,3.14-1.27,5.62-1.88,7.5-3.12a43,43,0,0,0,11.85-8.75l2.5,10.6h31.19v-.61A8.85,8.85,0,0,1,773.58,374.53Zm-29.94-37.45c0,9.36-1.26,14.34-4.38,18.7a27.8,27.8,0,0,1-13.72,10,6.65,6.65,0,0,0-3.1.63c-8.12,0-15-5-15-14.33,0-5,1.86-10,7.49-12.5,2.45-1.85,7.48-2.49,10.58-3.11.64,0,1.26-.63,1.86-.63,9.38-1.25,12.5-3.11,16.87-5.63Z" transform="translate(-72.65 -219.68)"></path>
                <path class="cls-2" d="M434.82,271c-25,0-36.82,10.63-40.55,16.24C382.4,301,381.16,319,381.16,328.35c0,8.73,1.24,26.82,13.11,41.17,3.73,5,15.58,16.21,40.55,16.21,24.31,0,36.79-11.2,40.56-16.21,12.46-14.35,13.08-32.44,13.08-41.17,0-9.35-.62-27.4-13.08-41.14C471.61,281.6,459.13,271,434.82,271Zm0,93.56c-20-.62-23.73-20-23.73-36.18,0-14.33,3.12-36.15,23.73-36.15,19.95,0,23.09,19.93,23.09,36.15C457.91,342.69,455.41,364.53,434.82,364.53Z" transform="translate(-72.65 -219.68)"></path>
                <polygon class="cls-3" points="161.88 0.56 161.88 45.69 45.13 162.4 0 162.4 161.88 0.56"></polygon>
                <polygon class="cls-4" points="0 0.56 119.55 0.56 0 120.07 0 0.56"></polygon>
                <polygon class="cls-5" points="161.88 44.88 161.88 162.4 45.13 162.4 161.88 44.88"></polygon>
              </svg>