<svg width="24" height="24" viewBox="0 0 24 24" fill="none" xmlns="http://www.w3.org/2000/svg">
<rect width="24" height="24" rx="2" fill="#25D366"/>
<path fill-rule="evenodd" clip-rule="evenodd" d="M12.2953 18.4901H12.2927C11.2479 18.4897 10.2212 18.2276 9.30941 17.7302L6 18.5984L6.88565 15.3634C6.33934 14.4166 6.05187 13.3427 6.05234 12.2424C6.05371 8.80038 8.85424 6 12.2952 6C13.9652 6.00072 15.5327 6.65086 16.7113 7.83088C17.89 9.01084 18.5387 10.5793 18.5381 12.2473C18.5367 15.6886 15.7373 18.4887 12.2953 18.4901ZM9.46279 16.6001L9.65226 16.7125C10.4489 17.1853 11.3621 17.4354 12.2932 17.4358H12.2953C15.1552 17.4358 17.4829 15.1081 17.484 12.247C17.4846 10.8605 16.9454 9.5569 15.9657 8.57611C14.9861 7.59532 13.6833 7.05492 12.2974 7.05444C9.43526 7.05444 7.10756 9.38193 7.10642 12.2428C7.10602 13.2232 7.38035 14.1781 7.89975 15.0042L8.02312 15.2005L7.49894 17.1152L9.46279 16.6001ZM15.2268 13.5914C15.3356 13.644 15.409 13.6795 15.4404 13.7319C15.4794 13.7969 15.4794 14.1092 15.3495 14.4736C15.2194 14.838 14.5963 15.1705 14.2966 15.2153C14.0278 15.2555 13.6877 15.2723 13.3141 15.1535C13.0875 15.0816 12.797 14.9856 12.4248 14.8249C10.9625 14.1935 9.97424 12.7762 9.78746 12.5083C9.77438 12.4895 9.76523 12.4764 9.76012 12.4696L9.75886 12.4679C9.67631 12.3578 9.12319 11.6198 9.12319 10.856C9.12319 10.1374 9.47613 9.76083 9.6386 9.58747C9.64973 9.5756 9.65996 9.56467 9.66913 9.55466C9.81211 9.39849 9.98111 9.35945 10.0851 9.35945C10.1891 9.35945 10.2932 9.36041 10.3841 9.36498C10.3953 9.36554 10.4069 9.36547 10.419 9.3654C10.5099 9.36487 10.6232 9.3642 10.735 9.63274C10.778 9.73609 10.841 9.8893 10.9073 10.0509C11.0416 10.3777 11.1899 10.7387 11.216 10.791C11.255 10.869 11.2809 10.9601 11.229 11.0643C11.2212 11.0799 11.2139 11.0946 11.207 11.1087C11.168 11.1884 11.1393 11.2471 11.073 11.3245C11.0469 11.3549 11.02 11.3877 10.993 11.4205C10.9394 11.4858 10.8857 11.5512 10.839 11.5977C10.7609 11.6755 10.6796 11.7599 10.7706 11.9161C10.8616 12.0723 11.1746 12.583 11.6384 12.9967C12.1368 13.4413 12.5701 13.6292 12.7897 13.7245C12.8326 13.7431 12.8673 13.7581 12.8928 13.7709C13.0487 13.849 13.1397 13.8359 13.2307 13.7319C13.3217 13.6278 13.6206 13.2764 13.7246 13.1202C13.8286 12.9641 13.9326 12.9901 14.0756 13.0422C14.2186 13.0943 14.9855 13.4716 15.1415 13.5496C15.1719 13.5649 15.2004 13.5787 15.2268 13.5914Z" fill="#FDFDFD"/>
</svg>
