<svg width="24" height="24" viewBox="0 0 24 24" fill="none" xmlns="http://www.w3.org/2000/svg">
<rect width="24" height="24" rx="2" fill="#EB722E"/>
<path d="M8.90392 12.412C8.6178 12.9744 8.94267 13.2433 9.68388 13.7026C10.314 14.0919 11.1845 14.2342 11.7437 14.2912C11.5145 14.5115 12.5647 13.5014 9.54012 16.4107C8.89879 17.0254 9.93126 18.0117 10.5721 17.4101L12.3071 15.7367C12.9713 16.3757 13.6079 16.9881 14.042 17.4124C14.6833 18.0164 15.7153 17.0385 15.081 16.4131C15.0334 16.3678 12.73 14.1581 12.8704 14.2935C13.4366 14.2366 14.2941 14.0858 14.9167 13.7049L14.9163 13.7045C15.6575 13.2428 15.9823 12.9744 15.7004 12.412C15.53 12.0927 15.0708 11.8257 14.4593 12.2874C14.4593 12.2874 13.6336 12.9198 12.3019 12.9198C10.9698 12.9198 10.1446 12.2874 10.1446 12.2874C9.53358 11.8234 9.07242 12.0927 8.90392 12.412Z" fill="white"/>
<path d="M12.301 12.0674C13.9244 12.0674 15.25 10.7988 15.25 9.23699C15.25 7.66868 13.9244 6.40002 12.301 6.40002C10.6772 6.40002 9.35156 7.66868 9.35156 9.23699C9.35156 10.7988 10.6772 12.0674 12.301 12.0674ZM12.301 7.83718C13.0987 7.83718 13.7494 8.4631 13.7494 9.23699C13.7494 10.0043 13.0987 10.6303 12.301 10.6303C11.5033 10.6303 10.8527 10.0043 10.8527 9.23699C10.8522 8.46264 11.5029 7.83718 12.301 7.83718Z" fill="white"/>
</svg>
