<svg width="24" height="24" viewBox="0 0 24 24" fill="none" xmlns="http://www.w3.org/2000/svg">
<rect width="24" height="24" rx="2" fill="#00ACED"/>
<path d="M17.5984 8.33644C17.1819 8.52918 16.7381 8.65694 16.2754 8.71897C16.7514 8.41915 17.1147 7.94801 17.2855 7.38014C16.8417 7.65927 16.3517 7.85644 15.8295 7.96647C15.4081 7.49312 14.8075 7.19995 14.1523 7.19995C12.8811 7.19995 11.8577 8.28844 11.8577 9.62284C11.8577 9.81484 11.8731 9.99946 11.9109 10.1752C10.002 10.077 8.31294 9.11183 7.17824 7.64155C6.98014 8.00414 6.86394 8.41915 6.86394 8.86592C6.86394 9.70481 7.27344 10.4484 7.88384 10.879C7.51494 10.8716 7.15304 10.7586 6.84644 10.5806C6.84644 10.588 6.84644 10.5976 6.84644 10.6072C6.84644 11.7843 7.64234 12.762 8.68604 12.9873C8.49914 13.0412 8.29544 13.067 8.08404 13.067C7.93704 13.067 7.78864 13.0582 7.64934 13.0257C7.94684 13.9849 8.79104 14.6902 9.79484 14.7131C9.01364 15.3577 8.02174 15.7462 6.94794 15.7462C6.75964 15.7462 6.57904 15.7373 6.39844 15.7129C7.41554 16.4049 8.62094 16.8 9.92084 16.8C14.146 16.8 16.456 13.1076 16.456 9.90715C16.456 9.80007 16.4525 9.69669 16.4476 9.59404C16.9033 9.25287 17.2862 8.82678 17.5984 8.33644Z" fill="white"/>
</svg>
