<svg width="14" height="14" viewBox="0 0 14 14" fill="none" xmlns="http://www.w3.org/2000/svg">
<path d="M7.77333 6.99993L13.8396 0.93359C14.0532 0.720011 14.0532 0.373735 13.8396 0.160184C13.6261 -0.0533674 13.2798 -0.0533947 13.0662 0.160184L6.9999 6.22652L0.93359 0.160184C0.720011 -0.0533947 0.373735 -0.0533947 0.160184 0.160184C-0.0533674 0.373763 -0.0533947 0.720039 0.160184 0.93359L6.22649 6.9999L0.160184 13.0662C-0.0533947 13.2798 -0.0533947 13.6261 0.160184 13.8396C0.26696 13.9464 0.40693 13.9998 0.546901 13.9998C0.686871 13.9998 0.826814 13.9464 0.933618 13.8396L6.9999 7.77333L13.0662 13.8396C13.173 13.9464 13.313 13.9998 13.4529 13.9998C13.5929 13.9998 13.7328 13.9464 13.8396 13.8396C14.0532 13.6261 14.0532 13.2798 13.8396 13.0662L7.77333 6.99993Z" fill="#313131"/>
</svg>
