<svg width="25" height="19" viewBox="0 0 25 19" fill="none" xmlns="http://www.w3.org/2000/svg">
<path d="M2.79804 5.68036C3.09474 5.88973 3.98909 6.51154 5.48114 7.54549C6.97324 8.57943 8.11629 9.37554 8.91034 9.93386C8.99758 9.99506 9.18292 10.1281 9.46646 10.3332C9.75005 10.5383 9.98568 10.7042 10.1732 10.8306C10.3608 10.9571 10.5876 11.0989 10.8539 11.2559C11.1201 11.4128 11.371 11.5308 11.6066 11.6089C11.8422 11.6877 12.0603 11.7267 12.261 11.7267H12.2741H12.2873C12.488 11.7267 12.7062 11.6876 12.9418 11.6089C13.1773 11.5308 13.4284 11.4127 13.6944 11.2559C13.9605 11.0987 14.1873 10.957 14.3749 10.8306C14.5626 10.7042 14.798 10.5383 15.0817 10.3332C15.3652 10.1279 15.5507 9.99506 15.638 9.93386C16.4406 9.37554 18.4826 7.95757 21.7633 5.68009C22.4002 5.23527 22.9324 4.69854 23.3599 4.07026C23.7877 3.44226 24.0014 2.78345 24.0014 2.0942C24.0014 1.51823 23.794 1.02519 23.3795 0.615122C22.965 0.204964 22.4741 0 21.9072 0H2.64094C1.96911 0 1.45209 0.226831 1.08998 0.680494C0.727909 1.13425 0.546875 1.70142 0.546875 2.38196C0.546875 2.93166 0.786909 3.52735 1.26675 4.16864C1.74654 4.80999 2.25714 5.31394 2.79804 5.68036Z" fill="#E30613"/>
<path d="M22.6924 7.08067C19.8306 9.01758 17.6577 10.5229 16.1745 11.5962C15.6772 11.9626 15.2737 12.2485 14.9639 12.4535C14.654 12.6585 14.2419 12.8679 13.727 13.0816C13.2123 13.2956 12.7326 13.4023 12.2875 13.4023H12.2742H12.261C11.816 13.4023 11.336 13.2956 10.8213 13.0816C10.3066 12.8679 9.89422 12.6585 9.58446 12.4535C9.27479 12.2485 8.87119 11.9626 8.37388 11.5962C7.19585 10.7325 5.02757 9.22708 1.86894 7.08067C1.37145 6.74931 0.93081 6.3695 0.546875 5.94202V16.3339C0.546875 16.9102 0.751839 17.403 1.162 17.8131C1.57206 18.2233 2.06515 18.4284 2.64108 18.4284H21.9073C22.4831 18.4284 22.9762 18.2233 23.3863 17.8131C23.7965 17.4028 24.0014 16.9102 24.0014 16.3339V5.94202C23.6261 6.36066 23.19 6.74046 22.6924 7.08067Z" fill="#E30613"/>
</svg>
