<svg width="23" height="17" viewBox="0 0 23 17" fill="none" xmlns="http://www.w3.org/2000/svg">
<path d="M21.0833 0H1.91668C0.85958 0 0 0.847122 0 1.8889V15.1111C0 16.1529 0.85958 17 1.91668 17H21.0834C22.1404 17 23 16.1529 23 15.1111V1.8889C23 0.847122 22.1404 0 21.0833 0ZM1.91668 0.94443H21.0834C21.154 0.94443 21.2162 0.969797 21.2825 0.984141C19.6231 2.4808 14.1209 7.44144 12.1954 9.15114C12.0447 9.28488 11.8019 9.44443 11.5 9.44443C11.1982 9.44443 10.9554 9.28488 10.8042 9.15069C8.8789 7.44126 3.37637 2.48036 1.71727 0.984229C1.78367 0.969885 1.84602 0.94443 1.91668 0.94443ZM0.958318 15.1111V1.8889C0.958318 1.79638 0.986619 1.71244 1.01196 1.62788C2.28199 2.77343 6.12119 6.23471 8.61058 8.46565C6.12928 10.5662 2.28908 14.1542 1.00895 15.3572C0.98635 15.2769 0.958318 15.1984 0.958318 15.1111ZM21.0833 16.0556H1.91668C1.84013 16.0556 1.77208 16.0293 1.70061 16.0124C3.02342 14.7697 6.88805 11.161 9.32574 9.1058C9.64351 9.38989 9.9338 9.64892 10.1626 9.85212C10.5576 10.2035 11.0199 10.3889 11.5 10.3889C11.9801 10.3889 12.4424 10.2035 12.8369 9.85256C13.0658 9.64927 13.3563 9.39002 13.6743 9.1058C16.1121 11.1608 19.9762 14.7692 21.2994 16.0124C21.2279 16.0293 21.16 16.0556 21.0833 16.0556ZM22.0417 15.1111C22.0417 15.1984 22.0136 15.2769 21.9911 15.3572C20.7105 14.1536 16.8707 10.5659 14.3895 8.46569C16.8789 6.23475 20.7176 2.77379 21.988 1.62779C22.0134 1.71235 22.0417 1.79633 22.0417 1.88886V15.1111Z" fill="#CE0000"/>
</svg>
