<svg width="23" height="23" viewBox="0 0 23 23" fill="none" xmlns="http://www.w3.org/2000/svg">
<path d="M22.3498 16.8797L19.1401 13.6699C17.9938 12.5236 16.045 12.9822 15.5865 14.4724C15.2426 15.5041 14.0963 16.0773 13.0646 15.848C10.7719 15.2748 7.67684 12.2944 7.10368 9.88707C6.75978 8.85533 7.44758 7.709 8.47927 7.36515C9.9695 6.90662 10.428 4.95786 9.2817 3.81154L6.07199 0.601822C5.15492 -0.200607 3.77933 -0.200607 2.9769 0.601822L0.798883 2.77984C-1.37914 5.0725 1.02815 11.148 6.41588 16.5358C11.8036 21.9235 17.8792 24.4455 20.1718 22.1528L22.3498 19.9747C23.1523 19.0577 23.1523 17.6821 22.3498 16.8797Z" fill="#E30613"/>
</svg>
