<svg width="60" height="42" viewBox="0 0 60 42" fill="none" xmlns="http://www.w3.org/2000/svg">
<path d="M34.6591 2.86291V2.96291H34.7591H41.5931C43.0365 2.96291 44.3818 3.60219 45.2848 4.71705C45.2848 4.71706 45.2848 4.71706 45.2848 4.71707L48.165 8.27564C50.5483 11.2208 53.3983 13.7276 56.6337 15.7261C58.5935 16.9372 59.7629 19.0219 59.7629 21.3048V34.3549C59.7629 34.8262 59.3762 35.2092 58.8973 35.2092H54.004H53.9159L53.9048 35.2966C53.4332 39.0065 50.2278 41.8893 46.3464 41.8893C42.4651 41.8893 39.2596 39.0065 38.788 35.2966L38.7769 35.2092H38.6888H22.1406H22.0525L22.0414 35.2966C21.5698 39.0065 18.3643 41.8893 14.483 41.8893C10.6016 41.8893 7.39611 39.0065 6.92453 35.2966L6.91343 35.2092H6.82533H0.96553C0.486614 35.2092 0.1 34.8262 0.1 34.3549V30.5377C0.1 30.0664 0.486615 29.6834 0.96553 29.6834H1.93106H2.03106V29.5834V0.954303C2.03106 0.482966 2.41767 0.1 2.89659 0.1H33.7936C34.2725 0.1 34.6591 0.482966 34.6591 0.954303V2.86291ZM54.1334 16.3232H54.454L54.1903 16.1409C51.4198 14.2259 48.932 11.9601 46.8123 9.34174L46.1519 8.52581L46.1218 8.48873H46.0741H43.4489H43.3489V8.58873V16.2232V16.3232H43.4489H54.1334ZM38.5212 16.2232V16.3232H38.6212H41.5178H41.6178V16.2232V8.58873V8.48873H41.5178H38.6212H38.5212V8.58873V16.2232ZM43.9331 5.78321L43.9331 5.78313C43.3607 5.0762 42.5074 4.67151 41.5931 4.67151H34.7591H34.6591V4.77151V29.5834V29.6834H34.7591H54.0697H54.1697V29.5834V26.7205C54.1697 26.2491 54.5563 25.8662 55.0352 25.8662H57.9318H58.0318V25.7662V21.3048C58.0318 20.0847 57.5752 18.9434 56.7787 18.0646L56.7489 18.0318H56.7046H37.6557C37.1768 18.0318 36.7901 17.6488 36.7901 17.1775V7.63442C36.7901 7.16309 37.1768 6.78012 37.6557 6.78012H44.5293H44.7386L44.6071 6.61727L43.9331 5.78321ZM3.86212 1.80861H3.76212V1.90861V29.5834V29.6834H3.86212H32.828H32.928V29.5834V1.90861V1.80861H32.828H3.86212ZM8.77667 35.2092H8.65811L8.6781 35.3261C9.14876 38.0774 11.5693 40.1807 14.483 40.1807C17.3967 40.1807 19.8171 38.0774 20.2878 35.3261L20.3078 35.2092H20.1892H18.208H18.1308L18.1112 35.2838C17.6909 36.8833 16.2304 38.0721 14.483 38.0721C12.7355 38.0721 11.275 36.8833 10.8547 35.2838L10.8351 35.2092H10.7579H8.77667ZM12.8203 35.2092H12.6452L12.7342 35.36C13.0862 35.9565 13.733 36.3635 14.482 36.3635C15.2309 36.3635 15.8788 35.9566 16.2308 35.36L16.3197 35.2092H16.1446H12.8203ZM40.6392 35.2092H40.5206L40.5406 35.3261C41.0113 38.0774 43.4317 40.1807 46.3454 40.1807C49.2591 40.1807 51.6796 38.0774 52.1503 35.3261L52.1703 35.2092H52.0517H50.0705H49.9933L49.9737 35.2838C49.5534 36.8833 48.0929 38.0721 46.3454 38.0721C44.598 38.0721 43.1375 36.8833 42.7171 35.2838L42.6975 35.2092H42.6204H40.6392ZM44.6828 35.2092H44.5077L44.5967 35.36C44.9486 35.9565 45.5955 36.3635 46.3445 36.3635C47.0934 36.3635 47.7412 35.9566 48.0932 35.36L48.1822 35.2092H48.0071H44.6828ZM57.9318 33.5006H58.0318V33.4006V31.492V31.392H57.9318H1.93106H1.83106V31.492V33.4006V33.5006H1.93106H57.9318ZM55.9007 29.5834V29.6834H56.0007H57.9318H58.0318V29.5834V27.6748V27.5748H57.9318H56.0007H55.9007V27.6748V29.5834Z" fill="#313131" stroke="white" stroke-width="0.2"/>
<path d="M36.7895 20.1403H40.4516V21.8489H36.7895V20.1403Z" fill="#313131" stroke="white" stroke-width="0.2"/>
<path d="M17.3776 14.2145H17.2776V14.3145V18.1317V18.2317H17.3776H19.3086H19.4086V18.1317V14.3145V14.2145H19.3086H17.3776ZM10.6189 12.5059H26.0673C26.5462 12.5059 26.9329 12.8888 26.9329 13.3602V26.7204C26.9329 27.1918 26.5462 27.5747 26.0673 27.5747H10.6189C10.1399 27.5747 9.75332 27.1918 9.75332 26.7204V13.3602C9.75332 12.8888 10.1399 12.5059 10.6189 12.5059Z" fill="#E30613" stroke="white" stroke-width="0.2"/>
<path d="M17.3766 14.2145H17.2766V14.3145V18.1317V18.2317H17.3766H19.3076H19.4076V18.1317V14.3145V14.2145H19.3076H17.3766ZM25.1008 25.8661H25.2008V25.7661V14.3145V14.2145H25.1008H21.2387H21.1387V14.3145V19.086C21.1387 19.5573 20.7521 19.9403 20.2732 19.9403H16.4111C15.9321 19.9403 15.5455 19.5573 15.5455 19.086V14.3145V14.2145H15.4455H11.5834H11.4834V14.3145V25.7661V25.8661H11.5834H25.1008ZM10.6179 12.5059H26.0664C26.5453 12.5059 26.9319 12.8888 26.9319 13.3602V26.7204C26.9319 27.1918 26.5453 27.5747 26.0664 27.5747H10.6179C10.139 27.5747 9.75234 27.1918 9.75234 26.7204V13.3602C9.75234 12.8888 10.139 12.5059 10.6179 12.5059Z" fill="#313131" stroke="white" stroke-width="0.2"/>
<path d="M19.4086 22.049H23.0707V23.7576H19.4086V22.049Z" fill="#313131" stroke="white" stroke-width="0.2"/>
<path d="M5.89199 8.68875H14.3818V10.3974H5.89199V8.68875Z" fill="#313131" stroke="white" stroke-width="0.2"/>
<path d="M7.82363 4.87148H16.3134V6.58009H7.82363V4.87148Z" fill="#313131" stroke="white" stroke-width="0.2"/>
</svg>
