<svg width="55" height="55" viewBox="0 0 55 55" fill="none" xmlns="http://www.w3.org/2000/svg">
<mask id="path-1-inside-1_0_2829" fill="white">
<path d="M52.1025 0H2.93477C2.23619 0 1.56623 0.277508 1.07226 0.771477C0.57829 1.26545 0.300781 1.93541 0.300781 2.63399V35.9978C0.300781 36.6964 0.57829 37.3664 1.07226 37.8603C1.56623 38.3543 2.23619 38.6318 2.93477 38.6318H21.3727V47.4118C21.3727 47.5854 21.4242 47.7551 21.5207 47.8995C21.6172 48.0438 21.7543 48.1563 21.9147 48.2227C22.0751 48.2892 22.2516 48.3066 22.4219 48.2727C22.5922 48.2388 22.7486 48.1553 22.8714 48.0325L24.8847 46.0193V53.5577C24.8847 53.7314 24.9362 53.9011 25.0327 54.0454C25.1292 54.1898 25.2663 54.3023 25.4267 54.3687C25.5871 54.4352 25.7636 54.4525 25.9339 54.4187C26.1042 54.3848 26.2606 54.3012 26.3834 54.1785L29.2746 51.2872L32.1659 54.1785C32.3305 54.3431 32.5538 54.4357 32.7866 54.4357C32.902 54.4361 33.0164 54.4134 33.1229 54.369C33.2833 54.3025 33.4204 54.1899 33.5168 54.0455C33.6132 53.9011 33.6647 53.7314 33.6646 53.5577V38.6318H52.1025C52.8011 38.6318 53.4711 38.3543 53.965 37.8603C54.459 37.3664 54.7365 36.6964 54.7365 35.9978V2.63399C54.7365 1.93541 54.459 1.26545 53.965 0.771477C53.4711 0.277508 52.8011 0 52.1025 0ZM25.7837 37.9716C25.2141 37.4378 24.4744 37.1222 23.695 37.0804C23.0314 37.0597 22.4006 36.7868 21.9311 36.3174C21.4616 35.8479 21.1888 35.2171 21.1681 34.5535C21.1263 33.774 20.8107 33.0344 20.2769 32.4648C19.8516 31.9869 19.6166 31.3695 19.6166 30.7298C19.6166 30.0902 19.8516 29.4727 20.2769 28.9949C20.8109 28.4251 21.1265 27.6851 21.1681 26.9053C21.189 26.2418 21.462 25.6113 21.9314 25.142C22.4009 24.6727 23.0315 24.4 23.695 24.3793C24.4744 24.3375 25.2141 24.0219 25.7837 23.4881C26.2676 23.0755 26.8827 22.8488 27.5186 22.8488C28.1546 22.8488 28.7697 23.0755 29.2536 23.4881C29.8232 24.0219 30.5628 24.3375 31.3423 24.3793C32.0058 24.4 32.6364 24.6727 33.1059 25.142C33.5753 25.6113 33.8483 26.2418 33.8692 26.9053C33.9108 27.6851 34.2264 28.4251 34.7604 28.9949C35.1857 29.4727 35.4206 30.0902 35.4206 30.7298C35.4206 31.3695 35.1857 31.9869 34.7604 32.4648C34.2266 33.0344 33.911 33.774 33.8692 34.5535C33.8485 35.2171 33.5756 35.8479 33.1062 36.3174C32.6367 36.7868 32.0059 37.0597 31.3423 37.0804C30.5628 37.1222 29.8232 37.4378 29.2536 37.9716C28.7697 38.3842 28.1546 38.6109 27.5186 38.6109C26.8827 38.6109 26.2676 38.3842 25.7837 37.9716ZM36.0738 27.8325C35.816 27.5659 35.6571 27.2193 35.6234 26.85C35.588 25.7415 35.1318 24.688 34.3475 23.9039C33.5632 23.1197 32.5097 22.6637 31.4011 22.6286C31.0321 22.5949 30.6857 22.4359 30.4195 22.1782C29.6098 21.4896 28.5816 21.1114 27.5186 21.1114C26.4557 21.1114 25.4275 21.4896 24.6177 22.1782C24.3515 22.4359 24.0052 22.5949 23.6361 22.6286C22.5276 22.6637 21.4741 23.1197 20.6898 23.9039C19.9055 24.688 19.4492 25.7415 19.4139 26.85C19.3802 27.2193 19.2213 27.5659 18.9635 27.8325C18.2896 28.5862 17.9009 29.5522 17.865 30.5626C17.829 31.573 18.1481 32.5641 18.7668 33.3638H8.99294C8.8195 32.5208 8.40269 31.7471 7.79409 31.1385C7.18548 30.5299 6.41179 30.1131 5.56876 29.9396V8.69216C6.41179 8.51872 7.18548 8.10191 7.79409 7.49331C8.40269 6.8847 8.8195 6.11101 8.99294 5.26797H46.0443C46.2178 6.11101 46.6346 6.8847 47.2432 7.49331C47.8518 8.10191 48.6255 8.51872 49.4685 8.69216V29.9396C48.6255 30.1131 47.8518 30.5299 47.2432 31.1385C46.6346 31.7471 46.2178 32.5208 46.0443 33.3638H36.2705C36.8892 32.5641 37.2082 31.573 37.1723 30.5626C37.1364 29.5522 36.7477 28.5862 36.0738 27.8325ZM23.1287 38.7705C23.2964 38.802 23.4659 38.8234 23.6361 38.8346C24.0052 38.8683 24.3515 39.0273 24.6177 39.285C25.4171 39.9954 26.4493 40.3878 27.5186 40.3878C27.8138 40.3857 28.108 40.3533 28.3966 40.2912V45.2958L26.3834 43.2826C26.2187 43.118 25.9955 43.0255 25.7627 43.0255C25.5298 43.0255 25.3066 43.118 25.1419 43.2826L23.1287 45.2923V38.7705ZM29.8954 49.425C29.7307 49.2604 29.5075 49.1679 29.2746 49.1679C29.0418 49.1679 28.8185 49.2604 28.6539 49.425L26.6406 51.4382V46.0193L28.6539 48.0325C28.8185 48.1972 29.0418 48.2897 29.2746 48.2898C29.3901 48.2901 29.5044 48.2674 29.6109 48.223C29.7713 48.1565 29.9084 48.044 30.0048 47.8996C30.1012 47.7552 30.1527 47.5854 30.1526 47.4118V39.5098H30.114C30.2158 39.4343 30.3238 39.3693 30.4195 39.285C30.6857 39.0273 31.0321 38.8683 31.4011 38.8346C31.5714 38.8234 31.7409 38.802 31.9086 38.7705V51.4382L29.8954 49.425ZM52.9805 35.9978C52.9805 36.2307 52.888 36.454 52.7234 36.6187C52.5587 36.7833 52.3354 36.8758 52.1025 36.8758H34.9C35.2452 36.3456 35.4703 35.7463 35.5593 35.1198H46.8345C47.0674 35.1198 47.2907 35.0273 47.4554 34.8627C47.62 34.698 47.7125 34.4747 47.7125 34.2418C47.7125 33.5433 47.9901 32.8733 48.484 32.3793C48.978 31.8854 49.648 31.6078 50.3465 31.6078C50.5794 31.6078 50.8027 31.5153 50.9674 31.3507C51.132 31.186 51.2245 30.9627 51.2245 30.7298V7.90196C51.2245 7.6691 51.132 7.44578 50.9674 7.28112C50.8027 7.11647 50.5794 7.02396 50.3465 7.02396C49.648 7.02396 48.978 6.74646 48.484 6.25249C47.9901 5.75852 47.7125 5.08855 47.7125 4.38998C47.7125 4.15712 47.62 3.9338 47.4554 3.76914C47.2907 3.60449 47.0674 3.51198 46.8345 3.51198H8.20274C7.96988 3.51198 7.74656 3.60449 7.58191 3.76914C7.41725 3.9338 7.32475 4.15712 7.32475 4.38998C7.32475 5.08855 7.04724 5.75852 6.55327 6.25249C6.0593 6.74646 5.38934 7.02396 4.69076 7.02396C4.4579 7.02396 4.23458 7.11647 4.06992 7.28112C3.90527 7.44578 3.81276 7.6691 3.81276 7.90196V30.7298C3.81276 30.9627 3.90527 31.186 4.06992 31.3507C4.23458 31.5153 4.4579 31.6078 4.69076 31.6078C5.38934 31.6078 6.0593 31.8854 6.55327 32.3793C7.04724 32.8733 7.32475 33.5433 7.32475 34.2418C7.32475 34.4747 7.41725 34.698 7.58191 34.8627C7.74656 35.0273 7.96988 35.1198 8.20274 35.1198H19.478C19.567 35.7463 19.7921 36.3456 20.1373 36.8758H2.93477C2.70191 36.8758 2.47859 36.7833 2.31393 36.6187C2.14928 36.454 2.05677 36.2307 2.05677 35.9978V2.63399C2.05677 2.40113 2.14928 2.17781 2.31393 2.01315C2.47859 1.84849 2.70191 1.75599 2.93477 1.75599H52.1025C52.3354 1.75599 52.5587 1.84849 52.7234 2.01315C52.888 2.17781 52.9805 2.40113 52.9805 2.63399V35.9978Z"/>
</mask>
<path d="M52.1025 0H2.93477C2.23619 0 1.56623 0.277508 1.07226 0.771477C0.57829 1.26545 0.300781 1.93541 0.300781 2.63399V35.9978C0.300781 36.6964 0.57829 37.3664 1.07226 37.8603C1.56623 38.3543 2.23619 38.6318 2.93477 38.6318H21.3727V47.4118C21.3727 47.5854 21.4242 47.7551 21.5207 47.8995C21.6172 48.0438 21.7543 48.1563 21.9147 48.2227C22.0751 48.2892 22.2516 48.3066 22.4219 48.2727C22.5922 48.2388 22.7486 48.1553 22.8714 48.0325L24.8847 46.0193V53.5577C24.8847 53.7314 24.9362 53.9011 25.0327 54.0454C25.1292 54.1898 25.2663 54.3023 25.4267 54.3687C25.5871 54.4352 25.7636 54.4525 25.9339 54.4187C26.1042 54.3848 26.2606 54.3012 26.3834 54.1785L29.2746 51.2872L32.1659 54.1785C32.3305 54.3431 32.5538 54.4357 32.7866 54.4357C32.902 54.4361 33.0164 54.4134 33.1229 54.369C33.2833 54.3025 33.4204 54.1899 33.5168 54.0455C33.6132 53.9011 33.6647 53.7314 33.6646 53.5577V38.6318H52.1025C52.8011 38.6318 53.4711 38.3543 53.965 37.8603C54.459 37.3664 54.7365 36.6964 54.7365 35.9978V2.63399C54.7365 1.93541 54.459 1.26545 53.965 0.771477C53.4711 0.277508 52.8011 0 52.1025 0ZM25.7837 37.9716C25.2141 37.4378 24.4744 37.1222 23.695 37.0804C23.0314 37.0597 22.4006 36.7868 21.9311 36.3174C21.4616 35.8479 21.1888 35.2171 21.1681 34.5535C21.1263 33.774 20.8107 33.0344 20.2769 32.4648C19.8516 31.9869 19.6166 31.3695 19.6166 30.7298C19.6166 30.0902 19.8516 29.4727 20.2769 28.9949C20.8109 28.4251 21.1265 27.6851 21.1681 26.9053C21.189 26.2418 21.462 25.6113 21.9314 25.142C22.4009 24.6727 23.0315 24.4 23.695 24.3793C24.4744 24.3375 25.2141 24.0219 25.7837 23.4881C26.2676 23.0755 26.8827 22.8488 27.5186 22.8488C28.1546 22.8488 28.7697 23.0755 29.2536 23.4881C29.8232 24.0219 30.5628 24.3375 31.3423 24.3793C32.0058 24.4 32.6364 24.6727 33.1059 25.142C33.5753 25.6113 33.8483 26.2418 33.8692 26.9053C33.9108 27.6851 34.2264 28.4251 34.7604 28.9949C35.1857 29.4727 35.4206 30.0902 35.4206 30.7298C35.4206 31.3695 35.1857 31.9869 34.7604 32.4648C34.2266 33.0344 33.911 33.774 33.8692 34.5535C33.8485 35.2171 33.5756 35.8479 33.1062 36.3174C32.6367 36.7868 32.0059 37.0597 31.3423 37.0804C30.5628 37.1222 29.8232 37.4378 29.2536 37.9716C28.7697 38.3842 28.1546 38.6109 27.5186 38.6109C26.8827 38.6109 26.2676 38.3842 25.7837 37.9716ZM36.0738 27.8325C35.816 27.5659 35.6571 27.2193 35.6234 26.85C35.588 25.7415 35.1318 24.688 34.3475 23.9039C33.5632 23.1197 32.5097 22.6637 31.4011 22.6286C31.0321 22.5949 30.6857 22.4359 30.4195 22.1782C29.6098 21.4896 28.5816 21.1114 27.5186 21.1114C26.4557 21.1114 25.4275 21.4896 24.6177 22.1782C24.3515 22.4359 24.0052 22.5949 23.6361 22.6286C22.5276 22.6637 21.4741 23.1197 20.6898 23.9039C19.9055 24.688 19.4492 25.7415 19.4139 26.85C19.3802 27.2193 19.2213 27.5659 18.9635 27.8325C18.2896 28.5862 17.9009 29.5522 17.865 30.5626C17.829 31.573 18.1481 32.5641 18.7668 33.3638H8.99294C8.8195 32.5208 8.40269 31.7471 7.79409 31.1385C7.18548 30.5299 6.41179 30.1131 5.56876 29.9396V8.69216C6.41179 8.51872 7.18548 8.10191 7.79409 7.49331C8.40269 6.8847 8.8195 6.11101 8.99294 5.26797H46.0443C46.2178 6.11101 46.6346 6.8847 47.2432 7.49331C47.8518 8.10191 48.6255 8.51872 49.4685 8.69216V29.9396C48.6255 30.1131 47.8518 30.5299 47.2432 31.1385C46.6346 31.7471 46.2178 32.5208 46.0443 33.3638H36.2705C36.8892 32.5641 37.2082 31.573 37.1723 30.5626C37.1364 29.5522 36.7477 28.5862 36.0738 27.8325ZM23.1287 38.7705C23.2964 38.802 23.4659 38.8234 23.6361 38.8346C24.0052 38.8683 24.3515 39.0273 24.6177 39.285C25.4171 39.9954 26.4493 40.3878 27.5186 40.3878C27.8138 40.3857 28.108 40.3533 28.3966 40.2912V45.2958L26.3834 43.2826C26.2187 43.118 25.9955 43.0255 25.7627 43.0255C25.5298 43.0255 25.3066 43.118 25.1419 43.2826L23.1287 45.2923V38.7705ZM29.8954 49.425C29.7307 49.2604 29.5075 49.1679 29.2746 49.1679C29.0418 49.1679 28.8185 49.2604 28.6539 49.425L26.6406 51.4382V46.0193L28.6539 48.0325C28.8185 48.1972 29.0418 48.2897 29.2746 48.2898C29.3901 48.2901 29.5044 48.2674 29.6109 48.223C29.7713 48.1565 29.9084 48.044 30.0048 47.8996C30.1012 47.7552 30.1527 47.5854 30.1526 47.4118V39.5098H30.114C30.2158 39.4343 30.3238 39.3693 30.4195 39.285C30.6857 39.0273 31.0321 38.8683 31.4011 38.8346C31.5714 38.8234 31.7409 38.802 31.9086 38.7705V51.4382L29.8954 49.425ZM52.9805 35.9978C52.9805 36.2307 52.888 36.454 52.7234 36.6187C52.5587 36.7833 52.3354 36.8758 52.1025 36.8758H34.9C35.2452 36.3456 35.4703 35.7463 35.5593 35.1198H46.8345C47.0674 35.1198 47.2907 35.0273 47.4554 34.8627C47.62 34.698 47.7125 34.4747 47.7125 34.2418C47.7125 33.5433 47.9901 32.8733 48.484 32.3793C48.978 31.8854 49.648 31.6078 50.3465 31.6078C50.5794 31.6078 50.8027 31.5153 50.9674 31.3507C51.132 31.186 51.2245 30.9627 51.2245 30.7298V7.90196C51.2245 7.6691 51.132 7.44578 50.9674 7.28112C50.8027 7.11647 50.5794 7.02396 50.3465 7.02396C49.648 7.02396 48.978 6.74646 48.484 6.25249C47.9901 5.75852 47.7125 5.08855 47.7125 4.38998C47.7125 4.15712 47.62 3.9338 47.4554 3.76914C47.2907 3.60449 47.0674 3.51198 46.8345 3.51198H8.20274C7.96988 3.51198 7.74656 3.60449 7.58191 3.76914C7.41725 3.9338 7.32475 4.15712 7.32475 4.38998C7.32475 5.08855 7.04724 5.75852 6.55327 6.25249C6.0593 6.74646 5.38934 7.02396 4.69076 7.02396C4.4579 7.02396 4.23458 7.11647 4.06992 7.28112C3.90527 7.44578 3.81276 7.6691 3.81276 7.90196V30.7298C3.81276 30.9627 3.90527 31.186 4.06992 31.3507C4.23458 31.5153 4.4579 31.6078 4.69076 31.6078C5.38934 31.6078 6.0593 31.8854 6.55327 32.3793C7.04724 32.8733 7.32475 33.5433 7.32475 34.2418C7.32475 34.4747 7.41725 34.698 7.58191 34.8627C7.74656 35.0273 7.96988 35.1198 8.20274 35.1198H19.478C19.567 35.7463 19.7921 36.3456 20.1373 36.8758H2.93477C2.70191 36.8758 2.47859 36.7833 2.31393 36.6187C2.14928 36.454 2.05677 36.2307 2.05677 35.9978V2.63399C2.05677 2.40113 2.14928 2.17781 2.31393 2.01315C2.47859 1.84849 2.70191 1.75599 2.93477 1.75599H52.1025C52.3354 1.75599 52.5587 1.84849 52.7234 2.01315C52.888 2.17781 52.9805 2.40113 52.9805 2.63399V35.9978Z" fill="#313131" stroke="white" stroke-width="0.4" mask="url(#path-1-inside-1_0_2829)"/>
<path d="M24.6492 26.4329C25.4991 25.865 26.4983 25.5619 27.5204 25.5619C28.8906 25.5633 30.2043 26.1082 31.1732 27.0771C32.1421 28.046 32.687 29.3597 32.6884 30.73C32.6884 31.7521 32.3853 32.7512 31.8174 33.6011C31.2496 34.4509 30.4424 35.1133 29.4981 35.5045C28.5538 35.8956 27.5147 35.998 26.5122 35.7986C25.5097 35.5991 24.5889 35.1069 23.8661 34.3842C23.1434 33.6614 22.6512 32.7406 22.4517 31.7381C22.2523 30.7356 22.3547 29.6965 22.7458 28.7522C23.137 27.8079 23.7994 27.0007 24.6492 26.4329Z" fill="#E30613" stroke="white" stroke-width="0.2"/>
<path d="M24.6488 26.4329C25.4986 25.865 26.4978 25.5619 27.5199 25.5619C28.8901 25.5633 30.2038 26.1082 31.1727 27.0771C32.1416 28.046 32.6865 29.3597 32.6879 30.73C32.6879 31.7521 32.3848 32.7512 31.8169 33.6011C31.2491 34.4509 30.4419 35.1133 29.4976 35.5045C28.5533 35.8956 27.5142 35.998 26.5117 35.7986C25.5092 35.5991 24.5884 35.1069 23.8656 34.3842C23.1429 33.6614 22.6507 32.7406 22.4513 31.7381C22.2518 30.7356 22.3542 29.6965 22.7453 28.7522C23.1365 27.8079 23.7989 27.0007 24.6488 26.4329ZM25.5132 33.7331C26.1072 34.13 26.8055 34.3419 27.5199 34.3419C28.4779 34.3419 29.3966 33.9613 30.074 33.2839C30.7514 32.6066 31.1319 31.6878 31.1319 30.7299C31.1319 30.0155 30.9201 29.3172 30.5232 28.7232C30.1263 28.1292 29.5622 27.6662 28.9022 27.3928C28.2422 27.1195 27.5159 27.0479 26.8153 27.1873C26.1146 27.3267 25.471 27.6707 24.9659 28.1758C24.4607 28.681 24.1167 29.3246 23.9773 30.0252C23.838 30.7259 23.9095 31.4521 24.1829 32.1121C24.4563 32.7721 24.9192 33.3362 25.5132 33.7331Z" fill="#313131" stroke="white" stroke-width="0.2"/>
<path d="M19.7177 7.12393H35.3216V8.67992H19.7177V7.12393Z" fill="#313131" stroke="white" stroke-width="0.2"/>
<path d="M14.4481 10.6359H40.588V12.1919H14.4481V10.6359Z" fill="#313131" stroke="white" stroke-width="0.2"/>
<path d="M10.9384 14.1479H44.1022V15.7038H10.9384V14.1479Z" fill="#313131" stroke="white" stroke-width="0.2"/>
<path d="M39.0321 29.9518H44.1001V31.5078H39.0321V29.9518Z" fill="#313131" stroke="white" stroke-width="0.2"/>
<path d="M10.9384 29.9518H16.0064V31.5078H10.9384V29.9518Z" fill="#313131" stroke="white" stroke-width="0.2"/>
</svg>
