<svg width="41" height="53" viewBox="0 0 41 53" fill="none" xmlns="http://www.w3.org/2000/svg">
<rect x="10" y="1" width="21" height="6" fill="#E30613"/>
<path d="M31.9816 1.68851V1.78851H32.0816H37.9914C39.3326 1.78851 40.4242 2.8801 40.4242 4.22127V49.811C40.4242 51.1521 39.3326 52.2437 37.9914 52.2437H2.53276C1.19159 52.2437 0.1 51.1521 0.1 49.811V4.22127C0.1 2.8801 1.19159 1.78851 2.53276 1.78851H8.44254H8.54254V1.68851V0.844254C8.54254 0.433389 8.87521 0.1 9.28679 0.1H31.2374C31.649 0.1 31.9816 0.433389 31.9816 0.844254V1.68851ZM10.131 1.58851H10.031V1.68851V6.75403V6.85403H10.131H30.3931H30.4931V6.75403V1.68851V1.58851H30.3931H10.131ZM32.0816 6.65403H31.9816V6.75403V7.59828C31.9816 8.00915 31.649 8.34254 31.2374 8.34254H9.28679C8.87521 8.34254 8.54254 8.00915 8.54254 7.59828V6.75403V6.65403H8.44254H5.06552H4.96552V6.75403V47.2782V47.3782H5.06552H35.4587H35.5587V47.2782V6.75403V6.65403H35.4587H32.0816ZM8.54254 3.37701V3.27701H8.44254H2.53276C2.01144 3.27701 1.58851 3.70092 1.58851 4.22127V49.811C1.58851 50.3322 2.0115 50.7552 2.53276 50.7552H37.9914C38.5127 50.7552 38.9357 50.3322 38.9357 49.811V4.22127C38.9357 3.70092 38.5127 3.27701 37.9914 3.27701H32.0816H31.9816V3.37701V5.06552V5.16552H32.0816H36.3029C36.7145 5.16552 37.0472 5.49891 37.0472 5.90978V48.1225C37.0472 48.5341 36.7146 48.8667 36.3029 48.8667H4.22127C3.80962 48.8667 3.47701 48.5341 3.47701 48.1225V5.90978C3.47701 5.49891 3.80969 5.16552 4.22127 5.16552H8.44254H8.54254V5.06552V3.37701Z" fill="#313131" stroke="white" stroke-width="0.2"/>
<path d="M12.5897 16.453L13.9212 17.1192L10.589 23.7837C10.4624 24.0361 10.2048 24.1954 9.92276 24.1954C9.64063 24.1954 9.38317 24.0361 9.25744 23.7846L7.61365 20.497L8.94513 19.8309L9.83331 21.6081L9.92274 21.787L10.0122 21.6081L12.5897 16.453Z" fill="#313131" stroke="white" stroke-width="0.2"/>
<path d="M15.9916 21.942H31.6834V23.6491H15.9916V21.942Z" fill="#313131" stroke="white" stroke-width="0.2"/>
<path d="M15.9916 18.7637H31.6834V20.4707H15.9916V18.7637Z" fill="#313131" stroke="white" stroke-width="0.2"/>
<path d="M12.5897 30.24L13.9212 30.9061L10.589 37.5706C10.4624 37.8231 10.2048 37.9823 9.92276 37.9823C9.64063 37.9823 9.38317 37.823 9.25744 37.5716L7.61365 34.284L8.94513 33.6179L9.83331 35.395L9.92274 35.574L10.0122 35.3951L12.5897 30.24Z" fill="#313131" stroke="white" stroke-width="0.2"/>
<path d="M15.9916 35.729H31.6834V37.436H15.9916V35.729Z" fill="#313131" stroke="white" stroke-width="0.2"/>
<path d="M15.9916 32.5507H31.6834V34.2577H15.9916V32.5507Z" fill="#313131" stroke="white" stroke-width="0.2"/>
</svg>
