<svg width="55" height="54" viewBox="0 0 55 54" fill="none" xmlns="http://www.w3.org/2000/svg">
<path d="M12.3164 4.5C12.3164 2.567 13.8834 1 15.8164 1H38.3164C40.5255 1 42.3164 2.79086 42.3164 5V8H15.8164C13.8834 8 12.3164 6.433 12.3164 4.5Z" fill="#E30613"/>
<path d="M25.0922 3.58389H30.1795V5.12582H25.0922V3.58389Z" fill="#313131" stroke="white" stroke-width="0.2"/>
<mask id="path-3-inside-1_0_2784" fill="white">
<path d="M52.3081 18.2903H43.4959V6.09677C43.4959 4.47981 42.846 2.92907 41.6892 1.7857C40.5324 0.642337 38.9634 0 37.3274 0H17.9407C16.3047 0 14.7357 0.642337 13.5789 1.7857C12.4221 2.92907 11.7722 4.47981 11.7722 6.09677V10.4516H2.96005C2.25891 10.4516 1.58649 10.7269 1.09071 11.2169C0.594932 11.7069 0.316406 12.3715 0.316406 13.0645V32.2258C0.316406 32.9188 0.594932 33.5834 1.09071 34.0734C1.58649 34.5634 2.25891 34.8387 2.96005 34.8387H11.7722V47.9032C11.7722 49.5202 12.4221 51.0709 13.5789 52.2143C14.7357 53.3577 16.3047 54 17.9407 54H37.3274C38.9634 54 40.5324 53.3577 41.6892 52.2143C42.846 51.0709 43.4959 49.5202 43.4959 47.9032V37.4516H52.3081C53.0092 37.4516 53.6816 37.1763 54.1774 36.6863C54.6732 36.1963 54.9517 35.5317 54.9517 34.8387V20.9032C54.9517 20.2102 54.6732 19.5456 54.1774 19.0556C53.6816 18.5656 53.0092 18.2903 52.3081 18.2903ZM17.9407 1.74194H37.3274C37.906 1.74194 38.479 1.85458 39.0135 2.07343C39.5481 2.29228 40.0338 2.61305 40.443 3.01744C40.8521 3.42182 41.1767 3.9019 41.3981 4.43025C41.6195 4.9586 41.7335 5.52489 41.7335 6.09677V6.96774H13.5346V6.09677C13.5346 4.9418 13.9988 3.83413 14.8251 3.01744C15.6514 2.20075 16.7721 1.74194 17.9407 1.74194ZM13.5346 8.70968H41.7335V18.2903H32.0401V13.0645C32.0401 12.3715 31.7616 11.7069 31.2658 11.2169C30.77 10.7269 30.0976 10.4516 29.3965 10.4516H13.5346V8.70968ZM2.07884 32.2258V13.0645C2.07884 12.8335 2.17168 12.612 2.33694 12.4486C2.5022 12.2853 2.72634 12.1935 2.96005 12.1935H29.3965C29.6302 12.1935 29.8543 12.2853 30.0196 12.4486C30.1849 12.612 30.2777 12.8335 30.2777 13.0645V32.2258C30.2777 32.4568 30.1849 32.6783 30.0196 32.8417C29.8543 33.005 29.6302 33.0968 29.3965 33.0968H23.228C22.9943 33.0968 22.7701 33.1885 22.6049 33.3519C22.4396 33.5152 22.3468 33.7367 22.3468 33.9677V37.0945L18.5664 33.3494C18.484 33.2686 18.3864 33.2048 18.279 33.1614C18.1716 33.1181 18.0567 33.0961 17.9407 33.0968H2.96005C2.72634 33.0968 2.5022 33.005 2.33694 32.8417C2.17168 32.6783 2.07884 32.4568 2.07884 32.2258ZM17.5794 34.8387L22.6023 39.8119C22.6847 39.8927 22.7823 39.9565 22.8897 39.9999C22.997 40.0432 23.112 40.0652 23.228 40.0645C23.3436 40.0675 23.4583 40.0436 23.5628 39.9948C23.7238 39.9295 23.8615 39.8185 23.9588 39.6759C24.056 39.5334 24.1083 39.3655 24.1092 39.1936V34.8387H27.6341C27.6341 35.5317 27.9126 36.1963 28.4084 36.6863C28.9041 37.1763 29.5766 37.4516 30.2777 37.4516H35.565V40.0645C35.5654 40.2221 35.6091 40.3766 35.6913 40.5116C35.7736 40.6465 35.8913 40.7569 36.032 40.831C36.1698 40.9009 36.3238 40.9337 36.4785 40.926C36.6333 40.9184 36.7832 40.8706 36.9132 40.7874L41.7335 37.6258V43.5484H13.5346V34.8387H17.5794ZM37.3274 52.2581H17.9407C16.7721 52.2581 15.6514 51.7993 14.8251 50.9826C13.9988 50.1659 13.5346 49.0582 13.5346 47.9032V45.2903H41.7335V47.9032C41.7335 48.4751 41.6195 49.0414 41.3981 49.5698C41.1767 50.0981 40.8521 50.5782 40.443 50.9826C40.0338 51.3869 39.5481 51.7077 39.0135 51.9266C38.479 52.1454 37.906 52.2581 37.3274 52.2581ZM53.1893 34.8387C53.1893 35.0697 53.0964 35.2912 52.9312 35.4546C52.7659 35.6179 52.5418 35.7097 52.3081 35.7097H41.7335C41.5607 35.711 41.3922 35.7625 41.2488 35.8577L37.3274 38.4706V36.5806C37.3274 36.3497 37.2346 36.1281 37.0693 35.9648C36.904 35.8014 36.6799 35.7097 36.4462 35.7097H30.2777C30.044 35.7097 29.8198 35.6179 29.6546 35.4546C29.4893 35.2912 29.3965 35.0697 29.3965 34.8387C30.0976 34.8387 30.77 34.5634 31.2658 34.0734C31.7616 33.5834 32.0401 32.9188 32.0401 32.2258V20.0323H52.3081C52.5418 20.0323 52.7659 20.124 52.9312 20.2874C53.0964 20.4507 53.1893 20.6722 53.1893 20.9032V34.8387Z"/>
</mask>
<path d="M52.3081 18.2903H43.4959V6.09677C43.4959 4.47981 42.846 2.92907 41.6892 1.7857C40.5324 0.642337 38.9634 0 37.3274 0H17.9407C16.3047 0 14.7357 0.642337 13.5789 1.7857C12.4221 2.92907 11.7722 4.47981 11.7722 6.09677V10.4516H2.96005C2.25891 10.4516 1.58649 10.7269 1.09071 11.2169C0.594932 11.7069 0.316406 12.3715 0.316406 13.0645V32.2258C0.316406 32.9188 0.594932 33.5834 1.09071 34.0734C1.58649 34.5634 2.25891 34.8387 2.96005 34.8387H11.7722V47.9032C11.7722 49.5202 12.4221 51.0709 13.5789 52.2143C14.7357 53.3577 16.3047 54 17.9407 54H37.3274C38.9634 54 40.5324 53.3577 41.6892 52.2143C42.846 51.0709 43.4959 49.5202 43.4959 47.9032V37.4516H52.3081C53.0092 37.4516 53.6816 37.1763 54.1774 36.6863C54.6732 36.1963 54.9517 35.5317 54.9517 34.8387V20.9032C54.9517 20.2102 54.6732 19.5456 54.1774 19.0556C53.6816 18.5656 53.0092 18.2903 52.3081 18.2903ZM17.9407 1.74194H37.3274C37.906 1.74194 38.479 1.85458 39.0135 2.07343C39.5481 2.29228 40.0338 2.61305 40.443 3.01744C40.8521 3.42182 41.1767 3.9019 41.3981 4.43025C41.6195 4.9586 41.7335 5.52489 41.7335 6.09677V6.96774H13.5346V6.09677C13.5346 4.9418 13.9988 3.83413 14.8251 3.01744C15.6514 2.20075 16.7721 1.74194 17.9407 1.74194ZM13.5346 8.70968H41.7335V18.2903H32.0401V13.0645C32.0401 12.3715 31.7616 11.7069 31.2658 11.2169C30.77 10.7269 30.0976 10.4516 29.3965 10.4516H13.5346V8.70968ZM2.07884 32.2258V13.0645C2.07884 12.8335 2.17168 12.612 2.33694 12.4486C2.5022 12.2853 2.72634 12.1935 2.96005 12.1935H29.3965C29.6302 12.1935 29.8543 12.2853 30.0196 12.4486C30.1849 12.612 30.2777 12.8335 30.2777 13.0645V32.2258C30.2777 32.4568 30.1849 32.6783 30.0196 32.8417C29.8543 33.005 29.6302 33.0968 29.3965 33.0968H23.228C22.9943 33.0968 22.7701 33.1885 22.6049 33.3519C22.4396 33.5152 22.3468 33.7367 22.3468 33.9677V37.0945L18.5664 33.3494C18.484 33.2686 18.3864 33.2048 18.279 33.1614C18.1716 33.1181 18.0567 33.0961 17.9407 33.0968H2.96005C2.72634 33.0968 2.5022 33.005 2.33694 32.8417C2.17168 32.6783 2.07884 32.4568 2.07884 32.2258ZM17.5794 34.8387L22.6023 39.8119C22.6847 39.8927 22.7823 39.9565 22.8897 39.9999C22.997 40.0432 23.112 40.0652 23.228 40.0645C23.3436 40.0675 23.4583 40.0436 23.5628 39.9948C23.7238 39.9295 23.8615 39.8185 23.9588 39.6759C24.056 39.5334 24.1083 39.3655 24.1092 39.1936V34.8387H27.6341C27.6341 35.5317 27.9126 36.1963 28.4084 36.6863C28.9041 37.1763 29.5766 37.4516 30.2777 37.4516H35.565V40.0645C35.5654 40.2221 35.6091 40.3766 35.6913 40.5116C35.7736 40.6465 35.8913 40.7569 36.032 40.831C36.1698 40.9009 36.3238 40.9337 36.4785 40.926C36.6333 40.9184 36.7832 40.8706 36.9132 40.7874L41.7335 37.6258V43.5484H13.5346V34.8387H17.5794ZM37.3274 52.2581H17.9407C16.7721 52.2581 15.6514 51.7993 14.8251 50.9826C13.9988 50.1659 13.5346 49.0582 13.5346 47.9032V45.2903H41.7335V47.9032C41.7335 48.4751 41.6195 49.0414 41.3981 49.5698C41.1767 50.0981 40.8521 50.5782 40.443 50.9826C40.0338 51.3869 39.5481 51.7077 39.0135 51.9266C38.479 52.1454 37.906 52.2581 37.3274 52.2581ZM53.1893 34.8387C53.1893 35.0697 53.0964 35.2912 52.9312 35.4546C52.7659 35.6179 52.5418 35.7097 52.3081 35.7097H41.7335C41.5607 35.711 41.3922 35.7625 41.2488 35.8577L37.3274 38.4706V36.5806C37.3274 36.3497 37.2346 36.1281 37.0693 35.9648C36.904 35.8014 36.6799 35.7097 36.4462 35.7097H30.2777C30.044 35.7097 29.8198 35.6179 29.6546 35.4546C29.4893 35.2912 29.3965 35.0697 29.3965 34.8387C30.0976 34.8387 30.77 34.5634 31.2658 34.0734C31.7616 33.5834 32.0401 32.9188 32.0401 32.2258V20.0323H52.3081C52.5418 20.0323 52.7659 20.124 52.9312 20.2874C53.0964 20.4507 53.1893 20.6722 53.1893 20.9032V34.8387Z" fill="#313131" stroke="white" stroke-width="0.4" mask="url(#path-3-inside-1_0_2784)"/>
<path d="M26.2222 46.6851C26.6405 46.4088 27.1325 46.2613 27.6358 46.2613C28.3108 46.2613 28.9579 46.5263 29.4349 46.9977C29.9118 47.469 30.1795 48.1081 30.1795 48.7742C30.1795 49.2709 30.0305 49.7566 29.7511 50.1698C29.4717 50.583 29.0746 50.9053 28.6096 51.0956C28.1447 51.286 27.633 51.3358 27.1394 51.2387C26.6457 51.1417 26.1925 50.9022 25.8368 50.5506C25.4811 50.1991 25.2391 49.7514 25.141 49.2642C25.043 48.777 25.0933 48.2719 25.2857 47.8129C25.478 47.3539 25.8039 46.9613 26.2222 46.6851Z" fill="#FAFAFA" stroke="white" stroke-width="0.2"/>
<path d="M26.2222 46.6851C26.6405 46.4088 27.1325 46.2613 27.6358 46.2613C28.3108 46.2613 28.9579 46.5263 29.4349 46.9977C29.9118 47.469 30.1795 48.1081 30.1795 48.7742C30.1795 49.2709 30.0305 49.7566 29.7511 50.1698C29.4717 50.583 29.0746 50.9053 28.6096 51.0956C28.1447 51.286 27.633 51.3358 27.1394 51.2387C26.6457 51.1417 26.1925 50.9022 25.8368 50.5506C25.4811 50.1991 25.2391 49.7514 25.141 49.2642C25.043 48.777 25.0933 48.2719 25.2857 47.8129C25.478 47.3539 25.8039 46.9613 26.2222 46.6851ZM27.0912 49.5818C27.2525 49.6883 27.442 49.7451 27.6358 49.7451C27.8957 49.7451 28.1451 49.6431 28.3292 49.4612C28.5134 49.2792 28.6171 49.0321 28.6171 48.7742C28.6171 48.5819 28.5594 48.394 28.4514 48.2343C28.3434 48.0746 28.1901 47.9503 28.0109 47.8769C27.8318 47.8036 27.6347 47.7844 27.4446 47.8218C27.2545 47.8592 27.0797 47.9515 26.9424 48.0872C26.8051 48.2229 26.7115 48.3959 26.6735 48.5845C26.6356 48.7731 26.6551 48.9686 26.7295 49.1461C26.8039 49.3237 26.9298 49.4752 27.0912 49.5818Z" fill="#313131" stroke="white" stroke-width="0.2"/>
<path d="M33.9027 21.8742H49.5646V23.4161H33.9027V21.8742Z" fill="#313131" stroke="white" stroke-width="0.2"/>
<path d="M8.41641 20.1H24.0783V21.6419H8.41641V20.1Z" fill="#313131" stroke="white" stroke-width="0.2"/>
<path d="M33.9027 25.3581H49.5646V26.9H33.9027V25.3581Z" fill="#313131" stroke="white" stroke-width="0.2"/>
<path d="M8.41641 23.5839H24.0783V25.1258H8.41641V23.5839Z" fill="#313131" stroke="white" stroke-width="0.2"/>
<path d="M33.9027 28.8419H49.5646V30.3839H33.9027V28.8419Z" fill="#313131" stroke="white" stroke-width="0.2"/>
<path d="M33.9027 32.3258H49.5646V33.8678H33.9027V32.3258Z" fill="#313131" stroke="white" stroke-width="0.2"/>
</svg>
