<svg width="47" height="36" viewBox="0 0 47 36" fill="none" xmlns="http://www.w3.org/2000/svg">
<path d="M37.2968 36C33.3548 36 30.3731 34.4762 28.3516 31.4286C26.6333 28.8571 25.7742 25.7143 25.7742 22C25.7742 17.2381 27.0376 12.9524 29.5645 9.14286C32.1925 5.33334 36.1344 2.28572 41.3903 7.23691e-06L42.7548 2.57144C39.6215 3.80953 36.8925 5.76191 34.5678 8.42858C32.3441 11.0952 31.2323 13.8095 31.2323 16.5714C31.2323 17.7143 31.3839 18.7143 31.6871 19.5714C33.3043 18.3333 35.1742 17.7143 37.2968 17.7143C40.0258 17.7143 42.3 18.5714 44.1194 20.2857C46.0398 21.9048 47 24.0952 47 26.8571C47 29.4286 46.0398 31.6191 44.1194 33.4286C42.3 35.1429 40.0258 36 37.2968 36ZM11.5226 36C7.58064 36 4.59892 34.4762 2.57741 31.4286C0.859135 28.8571 -4.49603e-06 25.7143 -3.8466e-06 22C-3.014e-06 17.2381 1.26344 12.9524 3.79032 9.14286C6.41828 5.33334 10.3602 2.28572 15.6161 2.73041e-06L16.9806 2.57143C13.8473 3.80953 11.1183 5.76191 8.79355 8.42857C6.56989 11.0952 5.45806 13.8095 5.45806 16.5714C5.45806 17.7143 5.60967 18.7143 5.9129 19.5714C7.53011 18.3333 9.4 17.7143 11.5226 17.7143C14.2516 17.7143 16.5258 18.5714 18.3452 20.2857C20.2656 21.9048 21.2258 24.0952 21.2258 26.8571C21.2258 29.4286 20.2656 31.619 18.3452 33.4286C16.5258 35.1429 14.2516 36 11.5226 36Z" fill="#E30613"/>
</svg>
