<svg width="24" height="25" viewBox="0 0 24 25" fill="none" xmlns="http://www.w3.org/2000/svg">
<circle cx="12" cy="12" r="12" fill="#E30613"/>
<path d="M11.696 8.464C10.9067 8.464 10.2507 8.80533 9.728 9.488L8.64 8.256C8.93867 7.76533 9.37067 7.37067 9.936 7.072C10.5013 6.77333 11.1253 6.624 11.808 6.624C12.8533 6.624 13.6693 6.896 14.256 7.44C14.864 7.97333 15.168 8.64 15.168 9.44C15.168 10.144 15.0293 10.7147 14.752 11.152C14.4747 11.5787 14.0853 11.9947 13.584 12.4C13.52 12.4533 13.4347 12.5227 13.328 12.608C13.232 12.6933 13.152 12.7627 13.088 12.816C13.0347 12.8587 12.96 12.9227 12.864 13.008C12.7787 13.0933 12.7147 13.1627 12.672 13.216C12.6293 13.2587 12.5707 13.328 12.496 13.424C12.432 13.5093 12.3893 13.584 12.368 13.648C12.3467 13.712 12.3147 13.7973 12.272 13.904C12.24 14.0107 12.2293 14.1067 12.24 14.192C12.2613 14.2773 12.272 14.384 12.272 14.512L10.592 14.528C10.528 14.1333 10.5227 13.7867 10.576 13.488C10.64 13.1787 10.7733 12.9013 10.976 12.656C11.1893 12.4 11.36 12.2187 11.488 12.112C11.6267 11.9947 11.8453 11.824 12.144 11.6C12.848 11.1093 13.2 10.5227 13.2 9.84C13.2 9.456 13.056 9.13067 12.768 8.864C12.48 8.59733 12.1227 8.464 11.696 8.464ZM10.24 16.8C10.24 16.4907 10.3573 16.2187 10.592 15.984C10.8373 15.7387 11.1413 15.616 11.504 15.616C11.8347 15.616 12.112 15.7387 12.336 15.984C12.5707 16.2187 12.688 16.4907 12.688 16.8C12.688 17.152 12.576 17.456 12.352 17.712C12.128 17.9573 11.8453 18.08 11.504 18.08C11.1413 18.08 10.8373 17.9573 10.592 17.712C10.3573 17.456 10.24 17.152 10.24 16.8Z" fill="white"/>
</svg>
