<svg width="200" height="164" viewBox="0 0 200 164" fill="none" xmlns="http://www.w3.org/2000/svg">
<path d="M12.4976 131H15.4256V114.2H4.84164L4.60164 117.56C3.85764 127.688 2.15364 128.24 0.857644 128.072L0.785645 131C4.09764 131.48 6.28164 129.896 7.26565 120.128L7.60164 116.96H12.4976V131Z" fill="black" fill-opacity="0.15"/>
<path d="M18.606 125.6C18.606 128.84 20.91 131.264 24.486 131.264C28.062 131.264 30.366 128.84 30.366 125.6C30.366 122.36 28.062 119.936 24.486 119.936C20.91 119.936 18.606 122.36 18.606 125.6ZM21.558 125.6C21.558 123.728 22.854 122.528 24.486 122.528C26.166 122.528 27.438 123.776 27.438 125.6C27.438 127.472 26.19 128.696 24.486 128.696C22.806 128.696 21.558 127.4 21.558 125.6Z" fill="black" fill-opacity="0.15"/>
<path d="M32.7546 131H35.5146V122.792H40.0026V120.2H32.7546V131Z" fill="black" fill-opacity="0.15"/>
<path d="M40.731 125.6C40.731 128.84 43.035 131.264 46.611 131.264C50.187 131.264 52.491 128.84 52.491 125.6C52.491 122.36 50.187 119.936 46.611 119.936C43.035 119.936 40.731 122.36 40.731 125.6ZM43.683 125.6C43.683 123.728 44.979 122.528 46.611 122.528C48.291 122.528 49.563 123.776 49.563 125.6C49.563 127.472 48.315 128.696 46.611 128.696C44.931 128.696 43.683 127.4 43.683 125.6Z" fill="black" fill-opacity="0.15"/>
<path d="M53.3297 122.96H56.8817V131H59.6417V122.96H63.1697V120.2H53.3297V122.96Z" fill="black" fill-opacity="0.15"/>
<path d="M67.9052 131L72.9452 124.16V131H75.7052V120.2H72.9452L67.9052 127.04V120.2H65.1452V131H67.9052Z" fill="black" fill-opacity="0.15"/>
<path d="M86.1538 131H88.9138V120.2H78.7858V131H81.5458V122.792H86.1538V131Z" fill="black" fill-opacity="0.15"/>
<path d="M107.291 120.2H103.811L99.9231 125.552L104.195 131H107.795L103.139 125.336L107.291 120.2ZM97.0671 131H99.8271V120.2H97.0671V131Z" fill="black" fill-opacity="0.15"/>
<path d="M108.09 125.6C108.09 128.84 110.394 131.264 113.97 131.264C117.546 131.264 119.85 128.84 119.85 125.6C119.85 122.36 117.546 119.936 113.97 119.936C110.394 119.936 108.09 122.36 108.09 125.6ZM111.042 125.6C111.042 123.728 112.338 122.528 113.97 122.528C115.65 122.528 116.922 123.776 116.922 125.6C116.922 127.472 115.674 128.696 113.97 128.696C112.29 128.696 111.042 127.4 111.042 125.6Z" fill="black" fill-opacity="0.15"/>
<path d="M122.239 131H124.999V124.4L128.287 128.432H128.359L131.551 124.4V131H134.311V120.2H131.887L128.407 124.712L124.735 120.2H122.239V131Z" fill="black" fill-opacity="0.15"/>
<path d="M144.748 131H147.508V120.2H137.38V131H140.14V122.792H144.748V131Z" fill="black" fill-opacity="0.15"/>
<path d="M151.415 122.984C152.207 122.624 152.999 122.24 154.247 122.24C155.855 122.24 156.335 123.224 156.263 125.024C155.735 124.64 154.775 124.328 153.815 124.328C151.631 124.328 149.879 125.456 149.879 127.832C149.879 129.92 151.295 131.144 153.263 131.144C154.727 131.144 155.879 130.568 156.455 129.752V131H158.855V124.424C158.855 121.568 157.727 119.936 154.535 119.936C153.119 119.936 151.655 120.416 150.719 120.968L151.415 122.984ZM154.175 128.816C153.311 128.816 152.639 128.36 152.639 127.544C152.639 126.632 153.455 126.2 154.367 126.2C155.159 126.2 155.783 126.368 156.263 126.728V127.832C155.927 128.312 155.327 128.816 154.175 128.816Z" fill="black" fill-opacity="0.15"/>
<path d="M169.172 131H171.932V120.2H169.172V124.28H164.444V120.2H161.684V131H164.444V126.872H169.172V131Z" fill="black" fill-opacity="0.15"/>
<path d="M177.757 131L182.797 124.16V131H185.557V120.2H182.797L177.757 127.04V120.2H174.997V131H177.757Z" fill="black" fill-opacity="0.15"/>
<path d="M191.397 131L196.437 124.16V131H199.197V120.2H196.437L191.397 127.04V120.2H188.637V131H191.397Z" fill="black" fill-opacity="0.15"/>
<path d="M38.3052 153.6C38.3052 156.84 40.6092 159.264 44.1852 159.264C47.7612 159.264 50.0652 156.84 50.0652 153.6C50.0652 150.36 47.7612 147.936 44.1852 147.936C40.6092 147.936 38.3052 150.36 38.3052 153.6ZM41.2572 153.6C41.2572 151.728 42.5532 150.528 44.1852 150.528C45.8652 150.528 47.1372 151.776 47.1372 153.6C47.1372 155.472 45.8892 156.696 44.1852 156.696C42.5052 156.696 41.2572 155.4 41.2572 153.6Z" fill="black" fill-opacity="0.15"/>
<path d="M50.9039 150.96H54.4559V159H57.2159V150.96H60.7439V148.2H50.9039V150.96Z" fill="black" fill-opacity="0.15"/>
<path d="M70.5753 155.376C69.8793 156.144 68.9673 156.696 67.7913 156.696C66.1593 156.696 64.6713 155.52 64.6713 153.6C64.6713 151.704 66.1353 150.528 67.6713 150.528C68.6553 150.528 69.5433 150.792 70.3593 151.584L71.6553 149.4C70.6473 148.392 69.0873 147.936 67.3113 147.936C64.0233 147.936 61.7193 150.456 61.7193 153.6C61.7193 157.008 64.0713 159.264 67.5753 159.264C69.3273 159.264 70.9593 158.616 71.8713 157.392L70.5753 155.376Z" fill="black" fill-opacity="0.15"/>
<path d="M84.1745 148.2H81.0305L79.0865 154.08C78.8945 154.632 78.7985 155.16 78.7025 155.664C78.5345 155.136 78.3905 154.632 78.1745 154.104L75.6545 148.2H72.3425L77.3345 159L77.0945 159.576C76.6385 160.704 76.1345 161.256 75.4385 161.256C75.0065 161.256 74.5985 161.04 74.3105 160.872L73.4225 162.96C74.0465 163.416 74.7665 163.8 75.7505 163.8C77.3345 163.8 78.3425 162.864 79.9265 159L84.1745 148.2Z" fill="black" fill-opacity="0.15"/>
<path d="M84.7945 150.96H88.3465V159H91.1066V150.96H94.6346V148.2H84.7945V150.96Z" fill="black" fill-opacity="0.15"/>
<path d="M104.466 155.376C103.77 156.144 102.858 156.696 101.682 156.696C100.05 156.696 98.5619 155.52 98.5619 153.6C98.5619 151.704 100.026 150.528 101.562 150.528C102.546 150.528 103.434 150.792 104.25 151.584L105.546 149.4C104.538 148.392 102.978 147.936 101.202 147.936C97.9139 147.936 95.6099 150.456 95.6099 153.6C95.6099 157.008 97.9619 159.264 101.466 159.264C103.218 159.264 104.85 158.616 105.762 157.392L104.466 155.376Z" fill="black" fill-opacity="0.15"/>
<path d="M106.638 150.96H110.19V159H112.95V150.96H116.478V148.2H106.638V150.96Z" fill="black" fill-opacity="0.15"/>
<path d="M118.454 159C119.438 159 121.406 159.12 122.75 159.12C126.23 159.12 127.886 157.992 127.886 155.856C127.886 154.608 127.094 153.72 125.582 153.36V153.312C126.662 153.144 127.598 152.208 127.598 150.912C127.598 148.944 125.846 148.08 122.702 148.08C121.022 148.08 119.39 148.176 118.454 148.2V159ZM122.942 154.416C124.238 154.416 124.982 154.848 124.982 155.664C124.982 156.408 124.262 156.912 123.038 156.912C122.366 156.912 121.622 156.84 121.214 156.816V154.416H122.942ZM122.942 150.312C123.974 150.312 124.67 150.696 124.67 151.488C124.67 152.328 123.926 152.736 123.014 152.736H121.214V150.36C121.502 150.336 122.294 150.312 122.942 150.312Z" fill="black" fill-opacity="0.15"/>
<path d="M140.917 148.2H137.773L135.829 154.08C135.637 154.632 135.541 155.16 135.445 155.664C135.277 155.136 135.133 154.632 134.917 154.104L132.397 148.2H129.085L134.077 159L133.837 159.576C133.381 160.704 132.877 161.256 132.181 161.256C131.749 161.256 131.341 161.04 131.053 160.872L130.165 162.96C130.789 163.416 131.509 163.8 132.493 163.8C134.077 163.8 135.085 162.864 136.669 159L140.917 148.2Z" fill="black" fill-opacity="0.15"/>
<path d="M150.621 155.976C149.997 156.48 148.893 156.96 147.573 156.96C145.869 156.96 144.573 156.072 144.333 154.44H152.133C152.253 154.032 152.301 153.624 152.301 152.952C152.301 149.928 149.973 147.936 147.189 147.936C143.637 147.936 141.477 150.456 141.477 153.6C141.477 157.008 143.805 159.264 147.285 159.264C148.797 159.264 150.333 158.832 151.413 157.92L150.621 155.976ZM147.069 150.24C148.653 150.24 149.565 151.272 149.541 152.592H144.237C144.525 151.176 145.413 150.24 147.069 150.24Z" fill="black" fill-opacity="0.15"/>
<path d="M153.279 150.96H156.831V159H159.591V150.96H163.119V148.2H153.279V150.96Z" fill="black" fill-opacity="0.15"/>
<path d="M101 0C73.386 0 50.9998 22.3862 50.9998 50C50.9998 77.6138 73.386 100 101 100C128.614 100 151 77.6138 151 50C151 22.3862 128.614 0 101 0ZM59.6205 50C59.6205 27.1845 78.1843 8.62069 101 8.62069C110.695 8.61252 120.082 12.0248 127.508 18.2569L69.2567 76.5086C63.0251 69.0818 59.6128 59.6949 59.6205 50ZM101 91.3793C91.7267 91.3856 82.7232 88.2605 75.4481 82.5103L133.51 24.4466C139.26 31.7225 142.385 40.7264 142.379 50C142.379 72.8155 123.815 91.3793 101 91.3793Z" fill="black" fill-opacity="0.15"/>
</svg>
