<svg width="20" height="20" viewBox="0 0 20 20" fill="none" xmlns="http://www.w3.org/2000/svg">
<path d="M8.72725 14.7646C8.74053 14.6447 8.84192 14.554 8.96263 14.554H11.0387C11.1594 14.554 11.2607 14.6447 11.2741 14.7646L11.8558 20H18.758C19.0688 20 19.364 19.8641 19.566 19.628C19.7682 19.3919 19.8568 19.0792 19.8089 18.7722L17.0163 0.899422C16.9354 0.381623 16.4894 0 15.9654 0H10.4392L10.6107 2.87408C10.6146 2.93926 10.5915 3.00314 10.5466 3.05059C10.5019 3.09803 10.4396 3.12501 10.3743 3.12501H9.62694C9.5617 3.12501 9.49939 3.09803 9.45455 3.05059C9.40984 3.00314 9.3867 2.93926 9.39053 2.87408L9.56211 0H4.0359C3.51194 0 3.06596 0.381623 2.98504 0.899422L0.192427 18.7723C0.144502 19.0793 0.233164 19.392 0.435272 19.628C0.637311 19.8641 0.932531 20.0001 1.24329 20.0001H8.14557L8.72725 14.7646ZM9.35753 5.21722C9.36773 5.09446 9.47036 5.00005 9.59353 5.00005H10.4078C10.531 5.00005 10.6336 5.09446 10.6438 5.21722L11.2292 12.2434C11.2348 12.3094 11.2124 12.3747 11.1675 12.4234C11.1228 12.4721 11.0595 12.4998 10.9933 12.4998H9.00802C8.94181 12.4998 8.87855 12.4721 8.83378 12.4234C8.78893 12.3747 8.76655 12.3094 8.77209 12.2434L9.35753 5.21722Z" fill="#E30613"/>
</svg>
