<svg width="106" height="106" viewBox="0 0 106 106" fill="none" xmlns="http://www.w3.org/2000/svg">
<circle cx="53" cy="53" r="53" fill="white"/>
<path fill-rule="evenodd" clip-rule="evenodd" d="M42.2554 18H63.7446C83.3564 18 88 22.6436 88 42.2554V63.7446C88 83.3564 83.3564 88 63.7446 88H42.2554C22.6436 88 18 83.3564 18 63.7446V42.2554C18 22.6436 22.6436 18 42.2554 18Z" fill="#4680C2"/>
<path fill-rule="evenodd" clip-rule="evenodd" d="M75.213 40.3431C75.5587 39.2564 75.213 38.4659 73.6816 38.4659H68.5933C67.3089 38.4659 66.7161 39.1575 66.3704 39.8986C66.3704 39.8986 63.7521 46.2218 60.0965 50.3219C58.9108 51.5075 58.3675 51.9027 57.7254 51.9027C57.3794 51.9027 56.9349 51.5075 56.9349 50.4208V40.2937C56.9349 39.0093 56.5397 38.4165 55.4528 38.4165H47.4501C46.6597 38.4165 46.1657 39.0093 46.1657 39.6021C46.1657 40.8372 47.9935 41.1335 48.1911 44.5915V52.1003C48.1911 53.7306 47.8947 54.0269 47.2525 54.0269C45.5235 54.0269 41.3245 47.6543 38.8051 40.3925C38.311 38.9599 37.8171 38.4165 36.5327 38.4165H31.395C29.913 38.4165 29.666 39.1082 29.666 39.8492C29.666 41.183 31.395 47.9014 37.7182 56.7934C41.9173 62.8695 47.8947 66.1299 53.2793 66.1299C56.5397 66.1299 56.9349 65.389 56.9349 64.154V59.5599C56.9349 58.0778 57.2313 57.8309 58.2687 57.8309C59.0097 57.8309 60.3435 58.2259 63.3569 61.1405C66.8149 64.5985 67.4077 66.1794 69.3343 66.1794H74.4225C75.9045 66.1794 76.5962 65.4384 76.201 64.0057C75.7563 62.5732 74.0768 60.4984 71.9031 58.0283C70.7175 56.6452 68.9391 55.1138 68.3957 54.3727C67.6547 53.3848 67.8523 52.9896 68.3957 52.1003C68.3464 52.1003 74.5707 43.3072 75.213 40.3431Z" fill="white"/>
</svg>
