<svg width="106" height="106" viewBox="0 0 106 106" fill="none" xmlns="http://www.w3.org/2000/svg">
<circle cx="53" cy="53" r="53" fill="white"/>
<path d="M85.4194 30.0274C82.6804 26.972 79.6125 26.9539 78.2059 26.7808C68.1295 26 53.016 26 53.016 26H52.9821C52.9821 26 37.8684 26 27.7943 26.7808C26.3877 26.9541 23.3222 26.972 20.5808 30.0274C18.4247 32.3584 17.7202 37.6527 17.7202 37.6527C17.7202 37.6527 17 43.8649 17 50.0774V55.9002C17 62.117 17.7202 68.327 17.7202 68.327C17.7202 68.327 18.4226 73.619 20.5808 75.9454C23.3222 79.0008 26.9164 78.9086 28.5191 79.228C34.2787 79.8179 53 80 53 80C53 80 68.1295 79.9731 78.2057 79.2013C79.6123 79.0213 82.6801 79.0035 85.4191 75.9478C87.5753 73.6214 88.2798 68.3294 88.2798 68.3294C88.2798 68.3294 89 62.1172 89 55.9026V50.0795C89 43.8651 88.2798 37.6527 88.2798 37.6527C88.2798 37.6527 87.5779 32.3586 85.4194 30.0274ZM44.0084 66.5001V39.5001L66.5157 53.0002L44.0084 66.5001Z" fill="url(#paint0_linear_0_21460)"/>
<defs>
<linearGradient id="paint0_linear_0_21460" x1="-1.85547" y1="-1.85338" x2="147.539" y2="147.589" gradientUnits="userSpaceOnUse">
<stop stop-color="#DD272D"/>
<stop offset="0.5153" stop-color="#CA2429"/>
<stop offset="1" stop-color="#B22025"/>
</linearGradient>
</defs>
</svg>
