<svg width="60" height="60" viewBox="0 0 60 60" fill="none" xmlns="http://www.w3.org/2000/svg">
<path d="M15.5 55.722H15.4157L15.3335 55.7407L0.989348 59.0056L4.26017 44.2897L4.32046 44.0185L4.18944 43.7734C1.92438 39.5367 0.7428 34.8053 0.750034 30.0011V30C0.750034 13.8452 13.8453 0.75 30 0.75C46.1548 0.75 59.25 13.8452 59.25 30C59.25 46.1548 46.1548 59.25 30 59.25H29.9989C25.1947 59.2572 20.4634 58.0757 16.2266 55.8106L16.0609 55.722H15.873H15.5ZM18.3477 51.844L18.3485 51.8445C21.9334 53.7603 25.9369 54.7585 30.0016 54.75C34.8961 54.7497 39.6807 53.2981 43.7504 50.5789C47.8205 47.8593 50.9928 43.9939 52.8661 39.4714C54.7393 34.9489 55.2295 29.9725 54.2745 25.1715C53.3195 20.3705 50.9623 15.9605 47.5009 12.4991C44.0396 9.03776 39.6296 6.68055 34.8285 5.72557C30.0275 4.77058 25.0511 5.26071 20.5286 7.13398C16.0062 9.00725 12.1407 12.1795 9.42116 16.2496C6.7016 20.3198 5.25003 25.1049 5.25003 30C5.25003 34.1251 6.25535 38.0988 8.15893 41.6522L9.07462 43.3655L7.1699 51.9353L6.91417 53.0859L8.06476 52.8301L16.6341 50.9255L18.3477 51.844Z" fill="#E30613" stroke="#F8F8F8" stroke-width="1.5"/>
<path d="M33.9 24.32C33.9 23.2773 33.5033 22.3933 32.71 21.668C31.9393 20.9427 30.9533 20.58 29.752 20.58C27.8027 20.58 26.216 21.4187 24.992 23.096L23.36 21.294C23.9947 20.2513 24.9013 19.424 26.08 18.812C27.2587 18.1773 28.5393 17.86 29.922 17.86C32.03 17.86 33.7073 18.4267 34.954 19.56C36.2007 20.6707 36.824 22.0647 36.824 23.742C36.824 24.8073 36.6427 25.748 36.28 26.564C36.1893 26.7907 36.0873 27.006 35.974 27.21C35.8607 27.414 35.7247 27.618 35.566 27.822C35.4073 28.0033 35.2713 28.162 35.158 28.298C35.0673 28.4113 34.9087 28.57 34.682 28.774C34.4553 28.9553 34.2967 29.0913 34.206 29.182C34.138 29.25 33.968 29.3973 33.696 29.624C33.424 29.828 33.254 29.9527 33.186 29.998C33.05 30.1113 32.8573 30.27 32.608 30.474C32.3813 30.6553 32.2 30.8027 32.064 30.916C31.9507 31.0293 31.792 31.1767 31.588 31.358C31.384 31.5393 31.2253 31.698 31.112 31.834C30.9987 31.97 30.874 32.14 30.738 32.344C30.602 32.548 30.5 32.7407 30.432 32.922C30.3867 33.1033 30.33 33.3073 30.262 33.534C30.2167 33.7607 30.194 34.01 30.194 34.282C30.2167 34.5313 30.2507 34.8033 30.296 35.098L27.848 35.132C27.44 32.9787 27.9727 31.29 29.446 30.066C29.6727 29.8847 30.0467 29.6013 30.568 29.216C31.112 28.808 31.5313 28.4793 31.826 28.23C32.1207 27.958 32.4493 27.618 32.812 27.21C33.1973 26.802 33.4693 26.36 33.628 25.884C33.8093 25.408 33.9 24.8867 33.9 24.32ZM27.168 40.164C27.168 39.6653 27.3493 39.246 27.712 38.906C28.0747 38.5433 28.5507 38.362 29.14 38.362C29.616 38.362 30.0353 38.5433 30.398 38.906C30.7607 39.2687 30.942 39.688 30.942 40.164C30.942 40.708 30.772 41.1727 30.432 41.558C30.092 41.9207 29.6613 42.102 29.14 42.102C28.5507 42.102 28.0747 41.9207 27.712 41.558C27.3493 41.1727 27.168 40.708 27.168 40.164Z" fill="#E30613"/>
</svg>
