<svg width="67" height="66" viewBox="0 0 67 66" fill="none" xmlns="http://www.w3.org/2000/svg">
<path d="M15.2479 52.7917H14.9885L14.7845 52.9519L1.3335 63.5195V4.16667C1.3335 3.49257 1.60128 2.84609 2.07793 2.36944C2.55459 1.89278 3.20107 1.625 3.87516 1.625H63.1252C63.7993 1.625 64.4457 1.89278 64.9224 2.36944C65.399 2.84609 65.6668 3.49258 65.6668 4.16667V50.25C65.6668 50.9241 65.399 51.5706 64.9224 52.0472C64.4457 52.5239 63.7993 52.7917 63.1252 52.7917H15.2479ZM59.8335 47.7083H60.5835V46.9583V7.45833V6.70833H59.8335H7.16683H6.41683V7.45833V51.5173V53.0602L7.63015 52.1071L13.2294 47.7083H59.8335ZM30.9585 24.6667H36.0418V29.75H30.9585V24.6667ZM17.7918 24.6667H22.8752V29.75H17.7918V24.6667ZM44.1252 24.6667H49.2085V29.75H44.1252V24.6667Z" fill="#E30613" stroke="#F8F8F8" stroke-width="1.5"/>
</svg>
