<svg width="24" height="24" viewBox="0 0 24 24" fill="none" xmlns="http://www.w3.org/2000/svg">
<rect width="24" height="24" rx="2" fill="url(#paint0_linear_1813_6496)"/>
<path d="M5.19635 12.1167C6.52628 11.3683 8.01085 10.7436 9.39795 10.1157C11.7843 9.08736 14.1802 8.0768 16.6002 7.13599C17.071 6.97568 17.917 6.81891 18 7.53181C17.9546 8.54091 17.7677 9.54411 17.6395 10.5473C17.3142 12.7534 16.9382 14.952 16.5716 17.1508C16.4452 17.8833 15.5472 18.2624 14.9726 17.7937C13.5916 16.8407 12.2 15.897 10.8367 14.9219C10.3901 14.4582 10.8043 13.7925 11.2031 13.4614C12.3405 12.3162 13.5467 11.3432 14.6247 10.1388C14.9154 9.42143 14.0563 10.026 13.7729 10.2113C12.2158 11.3076 10.6968 12.4708 9.05518 13.4343C8.21662 13.9059 7.23927 13.5028 6.40108 13.2397C5.64955 12.9218 4.54827 12.6015 5.19627 12.1168L5.19635 12.1167Z" fill="white"/>
<defs>
<linearGradient id="paint0_linear_1813_6496" x1="9.0014" y1="1.0008" x2="3.0014" y2="15" gradientUnits="userSpaceOnUse">
<stop stop-color="#37AEE2"/>
<stop offset="1" stop-color="#1E96C8"/>
</linearGradient>
</defs>
</svg>
