<svg width="24" height="24" viewBox="0 0 24 24" fill="none" xmlns="http://www.w3.org/2000/svg">
<rect width="24" height="24" rx="2" fill="#48729E"/>
<path d="M16.3582 12.9287C16.1642 12.6767 16.2197 12.5646 16.3582 12.3393C16.3607 12.3367 17.9623 10.0605 18.1273 9.28856L18.1283 9.28804C18.2103 9.00673 18.1283 8.79999 17.7318 8.79999H16.4197C16.0857 8.79999 15.9317 8.97742 15.8492 9.17593C15.8492 9.17593 15.1812 10.8206 14.2362 11.8867C13.9312 12.1948 13.7901 12.2935 13.6236 12.2935C13.5416 12.2935 13.4141 12.1948 13.4141 11.9135V9.28804C13.4141 8.95067 13.3206 8.79999 13.0441 8.79999H10.981C10.7715 8.79999 10.647 8.95736 10.647 9.10393C10.647 9.42382 11.1196 9.49736 11.1686 10.3974V12.3501C11.1686 12.778 11.0931 12.8567 10.9255 12.8567C10.4795 12.8567 9.39699 11.2053 8.75547 9.3153C8.62597 8.94862 8.49946 8.8005 8.16295 8.8005H6.85041C6.47589 8.8005 6.40039 8.97793 6.40039 9.17644C6.40039 9.52719 6.84641 11.2711 8.47446 13.5751C9.5595 15.1478 11.0876 16 12.4776 16C13.3131 16 13.4151 15.8107 13.4151 15.4852C13.4151 13.9824 13.3396 13.8405 13.7581 13.8405C13.9522 13.8405 14.2862 13.9392 15.0662 14.6978C15.9577 15.5973 16.1042 16 16.6032 16H17.9153C18.2893 16 18.4788 15.8107 18.3698 15.4374C18.1203 14.652 16.4342 13.0367 16.3582 12.9287Z" fill="white"/>
</svg>
