<svg width="20" height="27" viewBox="0 0 20 27" fill="none" xmlns="http://www.w3.org/2000/svg">
<path d="M9.67325 0C4.33939 0 0 4.38656 0 9.77834C0 16.4697 8.65661 26.293 9.02517 26.7079C9.37135 27.0977 9.97576 27.097 10.3213 26.7079C10.6899 26.293 19.3465 16.4697 19.3465 9.77834C19.3464 4.38656 15.007 0 9.67325 0ZM9.67325 14.6981C6.98965 14.6981 4.80644 12.4911 4.80644 9.77834C4.80644 7.06557 6.9897 4.85863 9.67325 4.85863C12.3568 4.85863 14.54 7.06562 14.54 9.77839C14.54 12.4912 12.3568 14.6981 9.67325 14.6981Z" fill="#E30613"/>
</svg>
