<svg width="76" height="76" viewBox="0 0 76 76" fill="none" xmlns="http://www.w3.org/2000/svg">
<circle cx="38" cy="38" r="38" fill="#EEEEEE"/>
<path d="M38.3945 35.7829C41.6141 35.7829 44.2244 32.6126 44.2244 28.7018C44.2244 24.7909 43.3674 21.6206 38.3945 21.6206C33.4216 21.6206 32.5645 24.7909 32.5645 28.7018C32.5645 32.6126 35.1747 35.7829 38.3945 35.7829Z" fill="#CCCCCC"/>
<path d="M49.3901 46.3094C49.2821 39.4967 48.3924 37.5555 41.5837 36.3267C41.5837 36.3267 40.6253 37.5479 38.3914 37.5479C36.1575 37.5479 35.1989 36.3267 35.1989 36.3267C28.4646 37.5421 27.5207 39.4545 27.3966 46.0881C27.3864 46.6298 27.3817 46.6582 27.3799 46.5954C27.3803 46.7132 27.3808 46.9311 27.3808 47.3111C27.3808 47.3111 29.0018 50.5789 38.3914 50.5789C47.7809 50.5789 49.402 47.3111 49.402 47.3111C49.402 47.067 49.4022 46.8972 49.4024 46.7817C49.4006 46.8206 49.397 46.7452 49.3901 46.3094Z" fill="#CCCCCC"/>
</svg>
