<svg width="30" height="27" viewBox="0 0 30 27" fill="none" xmlns="http://www.w3.org/2000/svg">
<path d="M30 27H17.7835V15.3158C17.7835 11.1053 18.8144 7.6579 20.8763 4.97369C22.9381 2.23684 25.9794 0.578949 30 0V5.60527C28.0928 6.18421 26.8041 7.13158 26.134 8.44737C25.5155 9.71053 25.1804 11.5 25.1289 13.8158H30V27ZM12.2165 27H0V15.3158C0 11.1053 1.03093 7.6579 3.09278 4.97369C5.15464 2.23684 8.19588 0.578949 12.2165 0V5.60527C10.3093 6.18421 9.02062 7.13158 8.35052 8.44737C7.73196 9.71053 7.39691 11.5 7.34536 13.8158H12.2165V27Z" fill="#E30613"/>
</svg>
