<svg width="30" height="23" viewBox="0 0 30 23" fill="none" xmlns="http://www.w3.org/2000/svg">
<path d="M23.8065 23C21.2903 23 19.3871 22.0265 18.0968 20.0794C17 18.4365 16.4516 16.4286 16.4516 14.0556C16.4516 11.0132 17.2581 8.27514 18.871 5.84127C20.5484 3.40741 23.0645 1.46032 26.4194 4.61931e-06L27.2903 1.64286C25.2903 2.43387 23.5484 3.68122 22.0645 5.38492C20.6452 7.08863 19.9355 8.82275 19.9355 10.5873C19.9355 11.3175 20.0323 11.9564 20.2258 12.504C21.2581 11.713 22.4516 11.3175 23.8065 11.3175C25.5484 11.3175 27 11.8651 28.1613 12.9603C29.3871 13.9947 30 15.3942 30 17.1587C30 18.8016 29.3871 20.2011 28.1613 21.3571C27 22.4524 25.5484 23 23.8065 23ZM7.35484 23C4.83871 23 2.93548 22.0265 1.64516 20.0794C0.548384 18.4365 -2.87246e-06 16.4286 -2.45755e-06 14.0556C-1.92561e-06 11.0132 0.80645 8.27513 2.41935 5.84127C4.09677 3.40741 6.6129 1.46032 9.96774 1.74282e-06L10.8387 1.64286C8.83871 2.43386 7.09677 3.68122 5.6129 5.38492C4.19355 7.08862 3.48387 8.82275 3.48387 10.5873C3.48387 11.3175 3.58064 11.9563 3.77419 12.504C4.80645 11.713 6 11.3175 7.35484 11.3175C9.09677 11.3175 10.5484 11.8651 11.7097 12.9603C12.9355 13.9947 13.5484 15.3942 13.5484 17.1587C13.5484 18.8016 12.9355 20.2011 11.7097 21.3571C10.5484 22.4524 9.09677 23 7.35484 23Z" fill="#E30613"/>
</svg>
