<svg width="27" height="27" viewBox="0 0 27 27" fill="none" xmlns="http://www.w3.org/2000/svg">
<path fill-rule="evenodd" clip-rule="evenodd" d="M2.7 12.2088C2.7 6.94942 6.92014 2.70002 12.1086 2.70002C17.2971 2.70002 21.5172 6.94942 21.5172 12.2088C21.5172 14.7877 20.5025 17.1238 18.8565 18.8351C18.8213 18.8606 18.7875 18.8891 18.7557 18.9206C18.7198 18.9562 18.6877 18.9941 18.6595 19.0339C16.9644 20.6956 14.6529 21.7175 12.1086 21.7175C6.92014 21.7175 2.7 17.4681 2.7 12.2088ZM19.3395 20.7181C17.3974 22.4003 14.8721 23.4175 12.1086 23.4175C5.96573 23.4175 1 18.3914 1 12.2088C1 6.02614 5.96573 1.00002 12.1086 1.00002C18.2515 1.00002 23.2172 6.02614 23.2172 12.2088C23.2172 14.9961 22.208 17.5483 20.5366 19.5109L25.5359 24.559C25.8662 24.8926 25.8636 25.4308 25.53 25.7611C25.1965 26.0914 24.6583 26.0888 24.328 25.7553L19.3395 20.7181Z" fill="#C4C4C4"/>
<path d="M18.8565 18.8351L19.1495 19.2402C19.1736 19.2228 19.1962 19.2032 19.2168 19.1817L18.8565 18.8351ZM18.7557 18.9206L18.4038 18.5654L18.4038 18.5654L18.7557 18.9206ZM18.6595 19.0339L19.0095 19.391C19.0308 19.3701 19.0502 19.3473 19.0675 19.323L18.6595 19.0339ZM19.3395 20.7181L19.6948 20.3663C19.5096 20.1793 19.2111 20.1679 19.0122 20.3402L19.3395 20.7181ZM20.5366 19.5109L20.1559 19.1868C19.9875 19.3845 19.9985 19.6782 20.1813 19.8628L20.5366 19.5109ZM25.5359 24.559L25.1806 24.9109V24.9109L25.5359 24.559ZM25.53 25.7611L25.1782 25.4058H25.1782L25.53 25.7611ZM24.328 25.7553L23.9727 26.1071V26.1071L24.328 25.7553ZM12.1086 2.20002C6.63956 2.20002 2.2 6.67774 2.2 12.2088H3.2C3.2 7.2211 7.20073 3.20002 12.1086 3.20002V2.20002ZM22.0172 12.2088C22.0172 6.67774 17.5777 2.20002 12.1086 2.20002V3.20002C17.0165 3.20002 21.0172 7.2211 21.0172 12.2088H22.0172ZM19.2168 19.1817C20.9494 17.3805 22.0172 14.9213 22.0172 12.2088H21.0172C21.0172 14.654 20.0557 16.8671 18.4961 18.4885L19.2168 19.1817ZM19.1075 19.2759C19.121 19.2625 19.135 19.2507 19.1495 19.2402L18.5635 18.4299C18.5075 18.4704 18.4541 18.5156 18.4038 18.5654L19.1075 19.2759ZM19.0675 19.323C19.079 19.3067 19.0923 19.2909 19.1075 19.2759L18.4038 18.5654C18.3473 18.6214 18.2964 18.6815 18.2515 18.7449L19.0675 19.323ZM12.1086 22.2175C14.7897 22.2175 17.2252 21.1401 19.0095 19.391L18.3095 18.6769C16.7035 20.2512 14.5161 21.2175 12.1086 21.2175V22.2175ZM2.2 12.2088C2.2 17.7398 6.63956 22.2175 12.1086 22.2175V21.2175C7.20073 21.2175 3.2 17.1964 3.2 12.2088H2.2ZM19.0122 20.3402C17.1571 21.9469 14.7469 22.9175 12.1086 22.9175V23.9175C14.9974 23.9175 17.6377 22.8536 19.6669 21.0961L19.0122 20.3402ZM12.1086 22.9175C6.24654 22.9175 1.5 18.1199 1.5 12.2088H0.5C0.5 18.6628 5.68491 23.9175 12.1086 23.9175V22.9175ZM1.5 12.2088C1.5 6.29759 6.24654 1.50002 12.1086 1.50002V0.500015C5.68491 0.500015 0.5 5.75469 0.5 12.2088H1.5ZM12.1086 1.50002C17.9707 1.50002 22.7172 6.29759 22.7172 12.2088H23.7172C23.7172 5.75469 18.5323 0.500015 12.1086 0.500015V1.50002ZM22.7172 12.2088C22.7172 14.8733 21.7528 17.3115 20.1559 19.1868L20.9172 19.8351C22.6631 17.7851 23.7172 15.1188 23.7172 12.2088H22.7172ZM20.1813 19.8628L25.1806 24.9109L25.8911 24.2072L20.8918 19.1591L20.1813 19.8628ZM25.1806 24.9109C25.3166 25.0482 25.3155 25.2698 25.1782 25.4058L25.8818 26.1164C26.4116 25.5917 26.4158 24.737 25.8911 24.2072L25.1806 24.9109ZM25.1782 25.4058C25.0408 25.5418 24.8192 25.5408 24.6832 25.4034L23.9727 26.1071C24.4973 26.6369 25.3521 26.641 25.8819 26.1164L25.1782 25.4058ZM24.6832 25.4034L19.6948 20.3663L18.9843 21.07L23.9727 26.1071L24.6832 25.4034Z" fill="#C4C4C4"/>
</svg>
